<svg version="1.1" id="Layer_1" xmlns="http://www.w3.org/2000/svg" xmlns:xlink="http://www.w3.org/1999/xlink" x="0px" y="0px"
	 width="100%" viewBox="0 0 960 896" enable-background="new 0 0 960 896" xml:space="preserve">
<path fill="#000000" opacity="1.000000" stroke="none" 
	d="
M520.892151,117.803940 
	C525.146851,120.080574 527.629883,118.861420 530.357971,115.374672 
	C538.960327,104.380180 549.535645,95.516029 561.575195,88.427040 
	C562.578369,87.836342 563.628662,87.319130 564.682434,86.821632 
	C582.117126,78.590790 594.089355,86.150833 594.370850,105.373428 
	C594.520081,115.570862 592.826721,125.254341 587.807312,134.221329 
	C586.713989,136.174484 586.432373,138.250717 586.272522,140.447479 
	C585.368164,152.877182 586.856262,164.917938 590.591064,176.876022 
	C599.425354,205.161514 599.526611,234.252701 597.488770,263.443481 
	C596.527466,277.213745 594.884705,290.918610 592.508545,304.527191 
	C592.244934,306.036926 592.291626,307.591766 593.735718,308.589447 
	C595.233093,309.623932 596.186096,308.288269 597.257751,307.615631 
	C598.610107,306.766876 599.983276,305.023407 601.562195,306.822296 
	C603.043701,308.510223 601.424377,309.840027 600.407654,311.127777 
	C599.817322,311.875488 598.764832,312.383881 599.039490,313.613068 
	C599.800659,314.901642 600.715332,314.184662 601.607605,313.825897 
	C602.728088,313.375275 603.893921,313.029572 604.834045,314.098145 
	C605.804626,315.201294 605.349548,316.310730 604.492126,317.217957 
	C602.748596,319.062744 603.873779,320.500549 604.994202,322.046661 
	C618.617065,340.845764 626.030518,362.370300 632.281311,384.395660 
	C633.724121,389.479462 635.019897,394.605011 636.343445,399.561920 
	C638.500427,399.856415 639.514160,397.413879 642.033386,398.832275 
	C641.907166,403.337128 634.813721,407.290802 639.877502,412.725677 
	C640.887268,414.147766 642.545654,411.844208 643.788025,413.172729 
	C644.490906,414.173798 644.039856,415.047241 643.481445,415.914001 
	C640.056824,421.229828 640.394043,422.229187 646.278564,423.789490 
	C647.318542,424.065247 648.305542,424.411011 648.547363,425.460083 
	C648.862793,426.828766 647.941406,427.832672 646.739624,428.026855 
	C643.447266,428.558868 643.552551,430.412231 644.070312,433.092651 
	C646.905579,447.769623 649.649963,462.458374 651.508667,477.310699 
	C654.033447,497.485687 655.454285,517.706482 655.258118,538.040833 
	C655.214600,542.558167 653.896057,547.389954 659.039673,551.004089 
	C653.406372,553.182312 652.870728,556.045776 656.567261,559.686707 
	C657.338013,560.445801 657.717102,561.650696 656.867065,562.374146 
	C651.708679,566.764343 653.455994,573.091248 652.476196,578.524231 
	C650.214233,591.066711 647.357361,603.292908 640.187378,614.089355 
	C638.338440,616.873352 636.534729,619.913147 633.713196,621.624634 
	C628.465027,624.808044 628.260193,628.782043 629.530151,634.313354 
	C632.289612,646.332275 632.205078,658.739746 633.223938,670.989075 
	C635.670349,700.401123 635.712952,729.886841 635.270447,759.365967 
	C634.980713,778.669861 634.104004,797.983765 631.460815,817.117249 
	C628.882690,835.779419 619.605774,845.538086 601.155823,849.556091 
	C587.745605,852.476501 574.227417,853.637695 560.575195,850.452576 
	C549.709717,847.917603 542.179871,841.826965 537.580383,831.635010 
	C530.158630,815.188904 525.372314,797.830139 519.582825,780.822388 
	C515.023987,767.429749 510.877838,753.895752 506.632568,740.398071 
	C505.761108,737.627136 504.740936,736.385986 501.344452,737.143005 
	C476.753143,742.623779 451.948151,743.270752 426.918488,740.534912 
	C413.472809,739.065186 400.267181,736.651001 387.284088,733.027405 
	C383.637024,732.009521 382.095764,732.776794 381.331909,736.408630 
	C376.299438,760.335205 369.435364,783.844299 365.035370,807.920349 
	C364.350159,811.669800 363.164459,815.352295 361.940063,818.974426 
	C357.289673,832.731689 347.441254,839.347656 333.122986,840.405334 
	C314.020386,841.816528 295.261841,839.833618 276.689056,835.585938 
	C265.280792,832.976868 262.419891,829.903015 261.548767,818.459534 
	C259.754425,794.888733 258.398651,771.293213 257.540100,747.660034 
	C256.959351,731.673157 256.612854,715.697876 256.662720,699.707336 
	C256.756256,669.726013 258.606720,639.852173 261.478546,610.006836 
	C264.535278,578.239624 268.595001,546.617737 273.498627,515.092834 
	C273.930908,512.313721 274.093262,509.492584 274.368469,506.812866 
	C273.803009,504.467743 270.162872,506.048187 270.103760,503.145386 
	C270.972809,500.881561 273.807281,502.297119 275.096680,500.555695 
	C277.450714,497.376160 276.287964,492.139740 272.673248,490.315338 
	C271.219757,489.581726 269.112183,489.085114 269.943573,486.898621 
	C270.687286,484.942749 272.463165,485.959625 273.838379,486.362488 
	C275.934265,486.976410 277.377899,486.681274 277.881012,484.186584 
	C278.330750,481.956421 278.844727,479.923889 276.058289,478.765930 
	C274.285278,478.029053 270.814240,478.374512 271.870453,475.228729 
	C272.764404,472.566376 275.584320,474.152924 277.625916,474.351349 
	C277.941010,474.381989 278.270538,474.264252 278.613556,474.212036 
	C284.446472,463.202148 281.284943,454.188171 272.096130,446.521210 
	C266.803314,447.943542 267.008972,447.963837 267.577179,442.205566 
	C267.901245,438.921509 267.174469,435.740509 262.657593,435.940216 
	C260.005096,436.057526 259.353455,434.258362 259.861206,432.354706 
	C260.734711,429.079865 259.276642,426.600708 257.245636,424.725220 
	C253.834167,421.574799 251.489410,417.968445 249.928391,413.621948 
	C249.012177,411.070892 247.321259,408.990112 243.888489,409.718994 
	C242.820297,409.945831 241.573303,409.387512 241.100113,407.604065 
	C244.846466,405.108185 242.921265,402.433441 241.124634,399.494720 
	C232.781967,385.848694 225.094772,371.831787 217.797714,357.600250 
	C217.267258,356.565674 216.925827,355.242126 216.081207,354.594910 
	C212.920944,352.173218 208.342941,350.940033 211.317062,345.036407 
	C212.196136,343.291412 209.365128,342.067810 207.043823,342.403656 
	C204.970718,342.703583 202.733902,343.536926 201.022827,341.230804 
	C201.437225,337.491730 205.715958,339.428741 207.224197,336.841492 
	C207.558990,335.343170 206.454315,334.024567 205.647430,332.549225 
	C203.924149,331.830933 202.463104,335.120117 200.783936,333.021912 
	C199.360321,331.243073 201.116898,329.907745 201.913864,328.595337 
	C203.152542,326.555573 202.440872,324.726013 201.654846,322.885193 
	C193.217834,303.126434 185.737152,283.015930 179.542175,262.440826 
	C178.721252,259.714325 176.628174,258.562286 174.572647,257.160217 
	C173.350723,256.326721 171.945740,255.381973 172.373718,253.599243 
	C172.780197,251.906006 174.547363,252.446823 176.050812,251.812576 
	C175.132370,247.023758 174.170074,242.175781 173.276489,237.315186 
	C170.690903,223.251129 170.500748,209.200012 173.828812,195.225327 
	C174.914658,190.665848 176.778015,186.387802 179.541550,182.543610 
	C184.507523,175.635727 191.119492,172.616898 199.522247,174.503296 
	C214.886887,177.952621 227.449173,186.759644 239.677597,196.069641 
	C247.249313,201.834305 253.831848,208.705338 260.371704,215.543243 
	C265.823700,212.915817 266.035736,213.053040 266.299347,219.306961 
	C266.361664,220.785065 266.104553,222.352692 267.662689,223.562653 
	C269.433563,223.109665 268.321808,218.961639 271.226501,220.233154 
	C273.357605,221.166046 273.067627,223.598465 273.121277,225.549469 
	C273.208069,228.704163 272.710175,231.986008 276.077850,234.370560 
	C277.404602,234.732010 278.238190,231.721634 280.098206,233.221649 
	C281.696594,234.510666 281.249268,236.224442 280.946777,237.838303 
	C280.669373,239.318375 280.186340,240.751312 281.127808,242.173904 
	C289.817719,255.304703 298.342957,268.539856 306.265167,282.654572 
	C308.506653,272.292267 307.630127,262.280426 308.469208,252.381592 
	C311.181305,220.386093 321.227173,191.352249 340.785645,165.670120 
	C347.270569,157.154770 352.479004,147.844635 354.143677,136.960632 
	C354.400146,135.283829 354.429657,133.701736 354.276428,132.027435 
	C352.947327,117.504158 354.176331,103.078079 356.753235,88.811386 
	C358.448242,79.427223 363.787842,76.449402 373.182312,78.483009 
	C383.645386,80.747925 391.411957,87.097893 398.134644,94.981270 
	C401.816956,99.299362 405.524719,103.764336 407.711182,108.957260 
	C410.013733,114.425819 413.512970,114.654091 418.349182,113.456017 
	C431.837097,110.114647 445.661224,109.124016 459.456970,109.061668 
	C480.175720,108.968025 500.612854,111.656311 520.892151,117.803940 
M194.717896,243.211380 
	C186.449417,248.545547 183.589417,255.361984 188.874802,264.435699 
	C189.118210,264.853607 189.142746,265.394684 189.296875,265.869446 
	C195.295059,284.345673 202.006042,302.547455 210.132919,320.836792 
	C212.065186,316.770905 211.806366,312.844604 212.940781,309.268555 
	C213.340393,308.008789 213.729660,306.481415 215.461624,306.684692 
	C217.197479,306.888458 217.397537,308.433472 217.227493,309.762482 
	C216.827332,312.890106 216.028809,315.975800 215.766068,319.109833 
	C215.359192,323.963135 213.264893,328.636841 215.684265,333.744324 
	C229.111160,362.089386 244.314636,389.413910 261.798553,415.459106 
	C263.706665,418.301605 265.756927,421.048676 267.918396,424.089142 
	C269.864502,421.053772 269.560303,418.209686 269.701630,415.431641 
	C269.790436,413.685516 269.421753,411.169525 272.022308,411.296722 
	C274.480103,411.416962 274.115417,413.892792 274.142761,415.656097 
	C274.168488,417.315399 274.264221,419.067383 273.807098,420.625427 
	C270.310059,432.544525 278.633789,439.229584 285.276367,447.764099 
	C288.533752,440.541534 289.290649,433.531403 291.590210,427.021820 
	C292.282959,425.060883 292.234314,421.933167 295.189606,422.750732 
	C298.164612,423.573822 296.476929,426.437927 296.132019,428.372864 
	C293.916321,440.803986 291.370361,453.179260 289.326324,465.637421 
	C284.374023,495.821381 279.927368,526.082642 275.942352,556.411804 
	C275.133179,562.570068 275.528992,563.153320 281.797424,562.526306 
	C281.797424,559.539001 281.774811,556.568787 281.807251,553.599121 
	C281.822693,552.187866 282.147583,550.851013 283.857941,550.673523 
	C285.604370,550.492249 286.130829,551.709045 286.327820,553.155518 
	C286.642273,555.464172 287.205719,557.776306 287.188385,560.083435 
	C287.165619,563.118225 288.281372,564.549194 291.369781,565.064697 
	C308.417389,567.909790 325.467133,570.711731 342.613251,572.929688 
	C346.053558,573.374695 347.052643,571.927795 347.600250,569.085327 
	C348.024353,566.884033 346.746033,562.824585 350.367767,563.344421 
	C353.922485,563.854553 352.058502,567.720093 351.976105,570.151855 
	C351.912720,572.020874 351.281403,573.715698 353.841614,574.520508 
	C359.866241,576.414490 362.739044,574.743164 363.679047,568.493652 
	C363.936646,566.781128 364.109283,564.886292 366.338806,564.992981 
	C368.809418,565.111206 368.337860,567.174622 368.271423,568.799744 
	C368.237579,569.628784 368.207886,570.495422 367.952789,571.271667 
	C366.683563,575.132935 368.579773,576.431091 372.081573,576.656860 
	C376.730621,576.956787 381.367676,577.486572 386.019775,577.681580 
	C389.476562,577.826416 393.314117,580.080261 396.264191,578.020630 
	C399.513214,575.752319 397.336304,571.520874 397.754028,568.177795 
	C397.907928,566.946228 398.100708,565.709290 399.508087,565.532898 
	C401.123688,565.330322 402.005829,566.462280 402.159515,567.909485 
	C402.369843,569.890198 402.511505,571.913208 402.349365,573.890747 
	C402.061066,577.406067 403.299225,579.082031 407.032867,579.210815 
	C417.013306,579.555176 427.002258,579.930969 436.953583,580.724121 
	C442.083618,581.132996 444.580750,579.447571 445.390259,574.294250 
	C445.768066,571.889099 445.400696,567.239929 449.071838,568.049377 
	C452.049957,568.705994 450.034271,572.617737 449.501770,575.041077 
	C448.621582,579.046387 449.592712,580.878784 454.154175,580.764465 
	C464.141907,580.514038 474.128143,580.581787 484.117065,579.943298 
	C488.218628,579.681091 489.941467,578.073242 490.960175,574.331848 
	C491.816223,571.187805 491.594543,567.440674 494.913818,564.737183 
	C496.903259,568.579285 494.906891,571.804871 494.476685,575.067078 
	C494.133118,577.672485 494.131042,579.785461 497.772705,579.533508 
	C513.381897,578.453796 529.021484,577.729980 544.600830,576.329163 
	C556.577026,575.252380 556.052002,574.965515 554.176636,562.898438 
	C552.623047,552.901855 549.622009,543.139526 548.810547,533.096252 
	C547.245178,513.723755 546.501160,494.286591 545.226501,474.888733 
	C543.791443,453.049805 545.883850,431.304169 546.649841,409.522491 
	C546.716919,407.614624 547.694153,406.240936 549.586182,406.055695 
	C551.737549,405.845062 552.983276,407.135651 553.309021,409.247040 
	C553.486572,410.398132 553.667847,411.560059 553.697388,412.720917 
	C554.282410,435.681274 555.380859,458.605652 558.299133,481.410278 
	C559.433411,490.273682 560.164795,499.199005 562.386902,508.721771 
	C563.755798,499.425140 563.755798,499.425140 567.288208,496.210632 
	C567.862915,512.868286 562.043213,529.027771 569.666748,544.207214 
	C570.903381,543.171265 570.983521,540.181641 573.542603,541.418030 
	C575.805176,542.511108 574.620972,544.660583 574.298279,546.344727 
	C573.459167,550.723938 571.286560,554.952698 572.479797,559.557739 
	C574.190613,566.160278 576.137146,572.701538 577.888672,579.293945 
	C578.476562,581.506897 579.587769,582.606384 581.998291,582.812073 
	C598.853516,584.250610 615.564209,583.917969 632.092163,579.752258 
	C648.140381,575.707397 643.658386,578.868774 646.600708,562.617676 
	C646.747192,561.808533 646.658142,560.954773 646.659485,560.121765 
	C646.683594,544.866089 646.873901,529.608337 646.684448,514.355286 
	C646.440186,494.684082 643.741211,475.224976 640.483582,455.878510 
	C637.171875,436.210938 632.651855,416.782013 627.744751,397.439240 
	C626.831116,393.837952 622.998230,392.174591 622.963806,388.501587 
	C622.843018,375.611816 617.364990,364.287476 612.571960,352.794922 
	C608.608276,343.290680 603.749756,334.237976 597.725525,325.930298 
	C595.861572,326.596130 596.350891,329.498383 594.267456,328.773407 
	C591.286438,327.736023 593.011963,324.470245 591.768616,322.258087 
	C586.039185,333.073303 579.037842,342.534058 569.212402,349.525604 
	C563.575745,353.536591 556.718811,356.525482 560.223999,365.610870 
	C560.665222,366.754578 560.239990,368.467468 558.386475,368.503174 
	C556.777771,368.534149 556.149231,367.269592 555.857849,365.879761 
	C555.427124,363.825623 556.019897,361.472565 553.699707,359.517365 
	C549.135986,361.243896 544.451172,363.424988 539.537048,364.766296 
	C534.059998,366.261200 529.831726,368.101044 531.151917,375.015717 
	C531.459778,376.627777 530.949646,378.660217 528.713379,378.612732 
	C526.695068,378.569824 526.826416,376.690155 526.687927,375.201508 
	C526.097229,368.851288 526.091248,368.857300 519.641541,370.380310 
	C518.345337,370.686432 517.047546,371.063507 515.729797,371.187439 
	C510.243835,371.703400 505.188049,372.546112 506.243439,380.087555 
	C506.412811,381.297821 505.686981,382.429016 504.192932,382.363251 
	C502.452179,382.286652 502.130249,380.957123 502.026276,379.548157 
	C501.895447,377.775269 503.183258,376.001770 501.769379,373.750671 
	C494.431091,374.507629 486.864960,375.220184 479.318054,376.098145 
	C476.046173,376.478760 472.176147,375.177094 469.629059,377.508270 
	C466.916687,379.990753 468.724609,383.770996 468.743866,386.998749 
	C468.752380,388.429108 468.481110,389.756226 466.816589,390.013397 
	C465.146149,390.271454 464.333221,389.057312 464.073608,387.708191 
	C463.634583,385.426819 463.486481,383.090973 463.160339,380.785889 
	C462.919403,379.082977 462.560883,377.431824 460.306702,377.363525 
	C453.179230,377.147705 446.119415,377.669708 439.128876,378.867310 
	C439.008301,379.734924 438.904633,380.216187 438.880371,380.701416 
	C438.783234,382.645203 440.669922,385.661713 437.435242,386.051727 
	C434.767578,386.373413 435.148834,383.281952 434.976196,381.442963 
	C434.721985,378.735504 433.063141,378.435150 430.850494,378.241638 
	C423.893280,377.633179 416.907593,377.115845 410.022858,376.005554 
	C406.271790,375.400696 405.211792,376.513794 405.238037,380.005371 
	C405.254242,382.161011 406.009491,385.640045 402.775604,385.561829 
	C399.312042,385.478088 400.315857,381.920532 400.163086,379.572083 
	C400.109741,378.751892 400.252777,377.906677 400.395599,377.088501 
	C400.714691,375.260742 399.882751,374.137207 398.193115,373.765869 
	C393.539520,372.743073 389.092102,370.720673 383.317352,370.589996 
	C383.317352,374.592957 383.355896,378.368958 383.299500,382.143524 
	C383.274933,383.787903 383.338165,386.007111 381.062164,385.861755 
	C378.465454,385.695923 379.003448,383.434113 379.143860,381.595428 
	C379.371552,378.614746 379.439545,375.621948 379.666107,372.641174 
	C379.869690,369.962860 378.862030,368.339783 376.254608,367.309967 
	C368.978271,364.436127 361.777100,361.369781 354.575348,358.310883 
	C352.364410,357.371796 350.429352,356.806122 349.282928,359.717865 
	C348.776733,361.003571 347.732880,361.488647 346.461121,360.937714 
	C345.179657,360.382599 345.071655,359.166138 345.229523,357.956024 
	C345.422729,356.474731 346.049805,354.742493 344.736267,353.690979 
	C341.030365,350.724426 337.355804,347.638672 332.918945,345.833893 
	C330.566010,348.631287 332.225922,351.354858 331.962067,353.902588 
	C331.776398,355.695557 332.003296,358.046234 329.540924,358.145264 
	C327.046936,358.245514 326.950836,355.956848 326.943054,354.121765 
	C326.931763,351.458679 326.701782,348.698486 327.301422,346.153168 
	C328.266815,342.055573 326.775665,339.320496 324.066772,336.390594 
	C316.598724,328.313232 311.297363,318.955597 308.967926,308.084839 
	C308.131256,304.180359 307.525055,300.246155 305.143860,296.831085 
	C300.660065,290.400452 297.010132,283.465637 293.131439,276.664490 
	C281.470062,256.216675 268.667053,236.568909 252.494644,219.296631 
	C250.167221,216.810883 247.926651,215.974548 244.565735,216.974518 
	C226.440247,222.367432 210.390854,231.665070 194.717896,243.211380 
M267.343750,785.235291 
	C268.211731,794.350464 268.961823,803.467896 269.202118,812.631836 
	C269.447876,822.005615 273.446075,826.668152 282.584808,828.558228 
	C298.961395,831.945129 315.420929,833.567200 332.178497,831.701416 
	C346.251923,830.134338 350.610260,827.184265 354.309875,813.561340 
	C360.019836,792.535950 365.258911,771.382996 370.799652,750.310974 
	C371.491882,747.678284 371.191528,745.908081 368.685608,744.497681 
	C348.053558,732.885193 332.102783,715.883240 316.221863,698.804260 
	C314.675232,697.140930 314.099731,695.313171 315.530792,693.423706 
	C316.925354,691.582397 318.773132,692.072021 320.461395,693.084473 
	C324.175323,695.311707 327.821259,697.653259 331.552856,699.849792 
	C361.510559,717.484436 393.692200,728.837097 428.275757,732.440247 
	C455.449615,735.271484 482.512024,733.353027 509.011871,726.420288 
	C524.207092,722.445068 538.335266,716.247742 547.963257,702.847351 
	C548.982544,701.428650 550.275513,700.055786 552.100342,701.185059 
	C554.120178,702.435059 552.823547,704.105896 552.085876,705.544373 
	C551.632019,706.429443 551.053223,707.256958 550.474548,708.070496 
	C540.630005,721.908691 531.921387,736.548340 521.117249,749.708496 
	C519.518494,751.655945 519.006470,753.634155 519.801880,756.173645 
	C527.368652,780.330017 535.064087,804.441406 545.085144,827.724609 
	C548.804871,836.367004 555.586792,841.128967 564.823547,842.788025 
	C575.490662,844.704041 586.159546,843.828491 596.666687,842.331543 
	C613.907043,839.875305 622.208496,831.557373 623.592102,816.454590 
	C626.007568,790.089355 627.320679,763.660645 627.657471,737.186890 
	C628.021973,708.528259 626.997864,679.916321 624.641663,651.351807 
	C624.043945,644.106445 623.487854,636.857666 622.888611,629.307373 
	C621.649170,629.608093 620.846619,629.737427 620.088501,629.996643 
	C609.344604,633.669556 599.128418,633.023193 589.601990,626.380066 
	C588.945068,625.921936 588.082214,625.476562 587.323364,625.489990 
	C577.388489,625.665649 572.548767,619.002136 568.447815,611.436035 
	C564.135864,603.480713 561.557800,594.846252 558.914062,586.248962 
	C558.436035,584.694458 558.468628,582.438477 556.251526,582.640991 
	C550.964172,583.123901 545.546570,583.366516 540.637451,585.619202 
	C537.377563,587.115173 537.344543,590.849121 536.279480,593.701965 
	C522.094666,631.698242 478.935303,661.117310 437.083527,657.370544 
	C402.808777,654.302063 376.570862,637.708740 360.948181,607.268188 
	C355.087830,595.849365 348.436432,592.940125 336.844849,593.086060 
	C317.540009,593.329224 298.295380,591.362244 279.429291,586.800659 
	C272.463837,585.116394 271.920807,585.555176 271.324188,592.779175 
	C270.502808,602.723999 269.410034,612.647400 268.661530,622.597107 
	C267.450958,638.689453 265.887878,654.780640 265.430511,670.899414 
	C264.357727,708.710571 265.214111,746.513550 267.343750,785.235291 
M586.755371,288.565125 
	C588.283020,277.688049 589.114319,266.746216 589.908752,255.796646 
	C591.590393,232.617950 591.499084,209.620819 585.121948,186.958069 
	C581.572205,174.343704 577.543823,161.743896 577.760620,148.377945 
	C577.789307,146.609024 576.704712,145.803421 575.256836,145.048141 
	C569.292175,141.936707 566.910217,136.526581 566.753784,130.217209 
	C566.422974,116.873238 569.902954,104.857063 580.001160,95.411263 
	C580.808350,94.656204 581.932617,93.987511 581.613464,92.169159 
	C576.265808,89.784882 571.407166,91.899490 566.656677,94.340988 
	C553.015930,101.351524 542.430969,111.874390 533.277161,123.928360 
	C530.473145,127.620728 527.972412,129.981262 523.682800,125.853813 
	C522.704834,124.912796 520.961792,124.673637 519.519409,124.322769 
	C502.161926,120.100395 484.524353,117.910011 466.688812,117.383186 
	C449.313934,116.869957 432.123596,118.799141 415.068146,121.939774 
	C410.459869,122.788353 407.167389,122.021065 404.697571,117.541145 
	C402.054047,112.746208 398.847046,108.225250 395.554260,103.833427 
	C390.506165,97.100426 384.597809,91.240707 376.629120,87.969833 
	C374.328644,87.025543 371.944458,85.691780 369.050995,86.785484 
	C377.771149,98.414276 380.131409,110.407722 376.797211,124.314331 
	C375.268677,130.689713 371.764404,135.138779 365.271240,136.795151 
	C362.765167,137.434448 360.999268,138.683792 360.494751,141.266876 
	C358.171295,153.162506 352.017822,163.232132 345.446289,173.118851 
	C339.178497,182.548660 332.555817,191.771484 328.219421,202.343674 
	C316.177246,231.702454 315.460052,262.666718 315.246246,293.703888 
	C315.230103,296.045990 316.640930,297.760132 317.859344,299.528778 
	C324.353546,308.955658 332.311554,316.946198 341.659882,323.544830 
	C366.687378,341.210846 395.300812,347.178406 425.141876,348.561188 
	C449.286835,349.680023 473.387177,348.781067 497.435638,345.842712 
	C528.807922,342.009430 556.933594,330.601410 581.890137,311.274536 
	C583.217346,310.246704 584.445679,309.173370 584.650208,307.307617 
	C585.302307,301.357849 586.014954,295.414703 586.755371,288.565125 
M517.093750,613.599792 
	C523.116516,605.732788 529.111938,597.849548 533.164062,587.614624 
	C529.741821,588.076599 527.292603,588.288635 524.891296,588.750061 
	C504.599152,592.649292 484.078766,594.520020 463.468964,595.242554 
	C432.025238,596.344788 400.581818,595.733276 369.149597,594.489441 
	C363.320984,594.258789 362.278748,595.897034 364.906311,601.286987 
	C370.237854,612.223694 377.643066,621.588623 387.011475,629.297729 
	C407.110260,645.836670 429.884827,653.651733 456.053925,649.716003 
	C480.987854,645.966187 500.522705,632.942871 517.093750,613.599792 
M196.667740,183.046707 
	C193.708542,184.316925 195.982300,185.680298 196.694321,186.843277 
	C198.864655,190.388062 201.236099,193.810654 203.373474,197.374237 
	C204.325241,198.961075 206.487030,200.968140 204.267075,202.591003 
	C202.055344,204.207886 200.794617,201.581924 199.593613,200.160721 
	C195.768295,195.633957 192.052567,191.014587 188.307678,186.447067 
	C181.669266,191.662857 180.934067,196.748688 185.614044,202.623520 
	C186.960114,204.313248 188.301651,206.011368 189.545944,207.775681 
	C190.371719,208.946564 190.656113,210.297104 189.390457,211.359863 
	C188.005447,212.522873 186.935135,211.535461 185.952866,210.586777 
	C184.358795,209.047180 183.310364,206.858429 180.655762,205.887161 
	C177.850708,218.761063 180.361237,230.748032 183.008240,243.156052 
	C190.907578,237.784485 191.616791,236.689514 191.625961,228.741714 
	C191.633286,222.404724 194.393890,217.370453 199.191147,213.695831 
	C208.595856,206.491989 219.290604,205.426224 229.765839,210.279572 
	C234.637497,212.536697 238.031891,211.603470 242.704803,209.711212 
	C234.723145,202.202515 226.599854,195.934235 217.500870,190.934433 
	C218.534851,192.738983 219.864532,194.204712 221.096191,195.748627 
	C222.052673,196.947601 222.976929,198.384842 221.589066,199.734329 
	C220.195343,201.089493 218.741211,200.223099 217.659500,199.092026 
	C214.212051,195.487228 210.617676,191.987915 207.509628,188.104095 
	C204.803513,184.722549 201.762711,182.667130 196.667740,183.046707 
M621.768677,618.159607 
	C622.886475,612.122192 623.940369,606.071838 625.166626,600.056519 
	C625.477234,598.532959 625.699890,596.236328 627.859802,596.445618 
	C630.357239,596.687683 630.021973,599.055420 629.887756,600.809753 
	C629.537231,605.392456 629.020752,609.962402 628.546570,614.779480 
	C635.508606,610.025146 643.466858,592.225464 642.206970,584.272644 
	C622.592651,590.888672 602.458374,593.067200 581.841858,590.915710 
	C582.769409,600.665649 587.365479,611.631165 592.519958,616.698730 
	C595.261230,613.722229 594.289490,609.767883 595.304749,606.371216 
	C595.712830,605.005798 595.577881,602.994385 597.623596,603.080078 
	C599.842102,603.172913 599.859802,605.218506 600.034302,606.840820 
	C600.395813,610.202148 599.699097,613.506775 598.947571,616.723328 
	C598.223938,619.820435 597.842468,622.358459 601.813354,623.243835 
	C606.151855,624.211243 605.817200,620.485596 606.405029,618.287903 
	C607.474121,614.290588 607.967590,610.138306 608.677368,606.046509 
	C608.909729,604.707336 609.081543,603.146240 610.796509,603.175903 
	C612.762268,603.209961 613.042419,604.905029 613.060608,606.439331 
	C613.076294,607.758972 612.828308,609.081360 612.701599,610.403015 
	C612.296387,614.628235 611.893372,618.853638 611.442017,623.575989 
	C615.854065,623.111572 619.686279,623.182129 621.768677,618.159607 
M585.937012,113.577919 
	C587.056763,108.228256 587.181152,102.973778 584.809692,97.737717 
	C575.712158,104.126740 568.991455,124.666046 572.660278,134.383179 
	C573.224609,135.877930 574.303162,137.286255 575.449097,138.428497 
	C577.180237,140.154160 578.938599,139.860413 579.428406,137.349396 
	C580.952942,129.533356 584.679871,122.342766 585.937012,113.577919 
M371.414520,100.253532 
	C370.103577,96.735626 368.969543,93.095802 364.687408,90.634529 
	C361.137604,104.372208 362.238190,117.736443 362.289368,131.291229 
	C368.318726,130.108017 370.230988,128.359634 371.474884,123.218506 
	C373.257721,115.849907 373.394989,108.446053 371.414520,100.253532 
M425.972198,370.362671 
	C429.210968,367.372986 427.113434,363.552094 427.523590,360.128387 
	C427.789490,357.908630 426.972717,356.250366 424.414825,355.929535 
	C421.190704,355.525208 417.215759,353.841003 415.082031,356.683441 
	C412.871765,359.627930 412.457886,364.026886 413.266327,367.690338 
	C413.927094,370.684479 417.490387,369.340576 419.777863,369.822937 
	C421.550385,370.196716 423.383240,370.284210 425.972198,370.362671 
M475.706360,368.010468 
	C476.132690,364.202576 474.387878,360.898438 473.001221,357.604279 
	C471.522888,354.092224 468.205933,355.478668 465.549591,355.647308 
	C462.768524,355.823883 462.050293,357.790405 462.373871,360.248505 
	C463.760956,370.785889 462.681396,370.286682 472.794891,369.085114 
	C473.608185,368.988464 474.397949,368.693268 475.706360,368.010468 
M442.546509,358.219238 
	C440.226196,354.781189 436.764587,356.137238 433.984039,356.762726 
	C431.282959,357.370300 432.492065,360.395142 432.283234,362.412933 
	C432.129822,363.894714 432.336823,365.410583 432.244446,366.902649 
	C432.056122,369.943542 433.566437,370.947571 436.442719,371.054474 
	C442.056671,371.263092 442.762665,370.698761 442.710480,365.061768 
	C442.691986,363.064606 442.669525,361.067505 442.546509,358.219238 
M396.153503,362.797333 
	C396.176453,363.445740 395.936340,364.439514 396.263428,364.688690 
	C399.276428,366.983734 403.007233,367.980408 406.445374,367.190796 
	C409.171936,366.564636 408.509705,363.066559 408.671265,360.693237 
	C408.800507,358.794312 409.672546,356.805664 408.526672,354.977325 
	C398.590942,352.216248 398.432190,352.309448 396.153503,362.797333 
M447.341827,366.044861 
	C447.180450,371.281433 450.687897,370.647980 454.145752,370.453918 
	C458.119537,370.230957 459.305359,368.170593 458.590363,364.554169 
	C458.333832,363.256866 457.826385,361.964386 457.825317,360.669373 
	C457.821259,355.836456 454.526947,356.271210 451.280304,356.278839 
	C447.345276,356.288055 447.278076,358.900391 447.326416,361.706329 
	C447.346375,362.864807 447.330505,364.023926 447.341827,366.044861 
M521.473083,350.568390 
	C522.294922,353.256927 523.098328,355.951294 523.945862,358.631714 
	C524.420837,360.134064 525.087280,361.526520 527.069458,360.976013 
	C530.180786,360.111908 533.512329,359.762329 536.082703,357.599976 
	C532.079163,345.967560 528.609985,344.172516 521.473083,350.568390 
M220.314804,215.454727 
	C207.409317,214.590149 198.918793,220.224274 199.647141,229.483200 
	C207.597778,225.209702 215.435867,220.996674 224.138596,216.318909 
	C222.273544,215.866653 221.634384,215.711655 220.314804,215.454727 
M490.761353,364.514587 
	C490.270905,362.598022 489.592499,360.707275 489.325287,358.760101 
	C488.522430,352.909180 484.455994,354.618713 481.042755,355.174622 
	C476.520447,355.911102 478.773529,358.971771 479.168945,361.327881 
	C479.304749,362.137238 479.520355,362.956757 479.850433,363.705048 
	C480.585541,365.371552 479.968628,368.577789 482.677002,368.154755 
	C485.413818,367.727295 489.290436,369.519531 490.761353,364.514587 
M496.140808,365.181793 
	C499.642639,367.902283 502.796753,365.460999 506.430237,364.891663 
	C505.767548,361.740112 505.105530,359.037750 504.648956,356.301147 
	C504.141205,353.257904 502.753723,352.223877 499.521881,352.783600 
	C493.053802,353.903839 493.005432,353.723236 494.530640,360.244232 
	C494.868469,361.688568 495.367249,363.095306 496.140808,365.181793 
M379.867584,358.531036 
	C381.450165,363.178528 385.901031,362.711243 389.293945,363.104034 
	C392.452606,363.469696 391.533630,359.672241 392.386261,357.748871 
	C394.037537,354.023804 393.359253,351.741638 388.616974,351.050049 
	C382.508789,350.159271 382.204224,350.096527 379.867584,358.531036 
M368.841095,356.682251 
	C374.890167,358.356903 375.610199,357.667389 376.931305,348.934784 
	C369.153351,344.642548 366.643921,344.415802 364.829041,347.841156 
	C362.285797,352.641266 362.800140,353.980072 368.841095,356.682251 
M351.655396,338.889984 
	C345.895355,343.681702 346.124512,346.161621 352.639496,349.540405 
	C358.654633,352.660004 359.669617,352.247101 361.185333,346.779846 
	C361.855164,344.363678 361.209869,342.951355 359.098328,341.990417 
	C356.845856,340.965332 354.570953,339.989502 351.655396,338.889984 
M519.062988,359.191650 
	C518.327026,357.165558 517.452393,355.177216 516.888916,353.104248 
	C516.114807,350.256805 514.329041,350.097198 511.907532,350.702698 
	C509.571228,351.286987 508.465485,352.393066 509.128998,354.934021 
	C509.628876,356.848297 509.891357,358.825439 510.239807,360.778137 
	C510.572968,362.645386 510.948883,364.824402 513.492310,364.012024 
	C515.751953,363.290283 519.818420,364.644257 519.062988,359.191650 
M545.515625,345.942871 
	C542.638794,341.435333 541.705444,341.364899 536.030029,345.286774 
	C536.096863,347.860016 537.887024,349.801361 538.712158,352.106964 
	C540.185913,356.224976 542.775330,356.311401 546.112183,354.393890 
	C550.996094,351.587372 546.475952,349.157867 545.515625,345.942871 
M342.515289,333.086517 
	C340.019470,331.895905 338.120361,329.625305 335.278503,328.964539 
	C331.608673,331.862671 331.023956,334.639221 335.213013,337.497131 
	C336.297852,338.237274 337.176605,339.302643 338.303314,339.953003 
	C340.078400,340.977570 341.758423,343.910645 344.083923,340.926819 
	C346.165924,338.255402 346.630280,335.533142 342.515289,333.086517 
M552.795898,349.123474 
	C555.681335,351.111084 558.306946,348.911652 558.901855,347.169250 
	C560.118164,343.606354 556.622314,341.235657 554.585083,338.919342 
	C552.513672,336.564209 550.630859,339.207428 548.747986,340.187225 
	C549.357117,343.493134 551.298157,345.864868 552.795898,349.123474 
M577.287354,332.932770 
	C579.808228,330.133789 577.205994,328.535095 575.528748,327.451508 
	C571.850464,325.075317 570.190063,328.790039 567.656494,330.383575 
	C568.923401,333.133820 570.047668,335.595856 572.842102,337.218384 
	C574.259216,335.876190 575.554443,334.649445 577.287354,332.932770 
M561.320801,340.222076 
	C562.561157,341.318237 562.786865,343.902527 565.293579,343.122192 
	C566.547607,342.731873 568.164978,341.954651 568.103149,340.635132 
	C567.960449,337.589142 565.393799,335.846375 563.335327,334.120514 
	C561.565430,332.636566 560.052612,334.080658 558.779663,335.873108 
	C559.494629,337.129242 560.218567,338.401093 561.320801,340.222076 
M323.687958,323.087982 
	C323.922058,326.134918 325.588654,328.059753 328.218018,329.314758 
	C331.267456,325.451874 331.340729,325.373230 328.888153,323.088593 
	C327.484222,321.780792 325.968414,319.173035 323.687958,323.087982 
M581.870911,322.608917 
	C580.925537,321.918793 579.846924,321.047394 578.929810,322.399109 
	C578.081665,323.649231 579.316833,324.509308 580.031372,325.331055 
	C580.677368,326.073975 581.565125,326.833618 582.546936,325.983215 
	C583.674866,325.006256 583.227600,323.942505 581.870911,322.608917 
z"/>
<path fill="#000000" opacity="1.000000" stroke="none" 
	d="
M424.292023,433.322174 
	C430.735840,421.044037 436.954712,409.067383 443.285553,397.150208 
	C446.684052,390.752991 450.713837,390.597137 454.814209,396.618011 
	C455.744110,397.983429 456.632050,399.464478 457.131439,401.022980 
	C464.167175,422.981110 475.967590,442.891052 484.212189,464.348297 
	C493.300598,488.001617 501.310272,511.984070 508.114288,536.370483 
	C510.537842,545.056885 506.681580,549.959045 497.632050,551.247131 
	C486.009277,552.901306 474.362823,552.344482 462.709808,552.094238 
	C461.230499,552.062439 459.749939,552.089905 458.306641,552.089905 
	C454.058685,564.027161 453.128754,565.174805 446.639038,564.082886 
	C433.401978,561.855774 433.557709,560.044800 432.798157,548.800415 
	C422.576172,547.162903 412.213379,546.083069 401.736176,546.144653 
	C399.236694,546.159363 396.736389,546.284546 394.238373,546.243225 
	C384.031738,546.074524 380.536530,541.596619 382.099640,531.597900 
	C383.606140,521.961426 386.733063,512.878662 390.463959,503.954376 
	C400.497681,479.953827 412.075592,456.690613 424.292023,433.322174 
M391.222961,530.647217 
	C388.468445,531.645081 387.181061,533.725098 387.787323,536.478577 
	C388.457306,539.521606 391.166840,540.106873 393.728516,539.837524 
	C400.572968,539.117920 407.336853,539.503723 414.116760,540.498779 
	C417.337982,540.971619 419.451965,539.967773 419.956055,536.170227 
	C420.412354,532.733093 421.622894,529.391174 422.570007,526.026733 
	C422.946106,524.690613 423.636292,523.351685 425.327881,523.838379 
	C427.037811,524.330383 426.665009,525.856445 426.536163,527.191284 
	C426.316040,529.471924 424.878357,531.557190 425.570831,534.853821 
	C426.214600,532.359192 426.876068,530.688904 427.042511,528.970642 
	C427.425903,525.012817 428.892700,522.875244 433.194519,521.485962 
	C437.547333,520.080078 438.003662,521.640381 437.898010,524.810486 
	C437.770660,528.631287 437.353363,532.449890 436.898529,536.249939 
	C436.524170,539.377563 435.839081,542.396179 431.044281,540.910278 
	C434.147797,543.282593 437.428772,542.602234 440.454346,542.994812 
	C447.876160,543.957947 455.276031,545.321838 462.814392,544.950378 
	C464.396912,544.872375 466.749420,545.430115 465.790558,542.232117 
	C463.885834,542.296082 462.043396,544.734619 460.542633,541.769836 
	C459.007019,538.736206 459.284241,526.392822 461.352783,524.783875 
	C463.327332,523.248108 465.554535,523.364258 467.950378,524.258789 
	C469.963318,525.010437 472.375153,524.762085 473.450775,527.367493 
	C476.004517,523.442566 485.417389,521.247864 488.260101,523.610046 
	C488.217712,521.248352 489.331848,519.676270 491.582855,519.351990 
	C493.635498,519.056213 494.272583,520.941956 495.184814,522.293335 
	C496.275360,523.908936 496.587524,526.091248 499.139801,528.013367 
	C496.558319,517.266235 493.431274,507.823639 490.168060,498.423767 
	C489.274506,495.850006 487.041382,495.799408 484.811493,495.787689 
	C483.186768,495.779144 474.838776,491.978882 474.502899,490.932190 
	C472.674377,485.233643 470.780151,479.545410 469.282349,473.756897 
	C468.695618,471.489441 469.857971,470.147888 472.391296,471.671326 
	C473.129547,472.115265 473.479828,473.571014 475.006775,472.414917 
	C475.399445,470.519653 474.257294,467.961060 476.931488,466.430023 
	C478.239685,465.681091 477.622711,464.015900 477.110260,462.758759 
	C474.408752,456.131256 471.693848,449.509216 468.978943,442.887238 
	C468.378845,441.423615 467.499634,439.973755 465.739105,440.326324 
	C460.454590,441.384583 459.617889,437.742828 458.810791,434.033447 
	C457.823242,429.494629 455.557159,424.933746 458.882538,420.412170 
	C455.480194,413.858887 453.993988,406.382080 449.253815,399.887238 
	C445.752014,404.730927 443.816071,409.891144 441.217651,414.676178 
	C439.104462,418.567596 436.010345,422.604156 442.969269,424.925049 
	C444.746948,422.554382 447.203613,422.780426 449.806183,423.909454 
	C450.270752,424.110992 449.758698,425.561890 451.285400,424.534760 
	C454.608734,422.298767 455.950806,424.165619 456.333191,427.579590 
	C456.628174,430.213135 457.278656,432.808960 457.812622,435.413025 
	C458.253174,437.561432 457.737671,438.722809 455.297760,439.285889 
	C452.372467,439.960999 450.322205,438.436096 447.824707,437.690613 
	C443.412292,436.373505 446.872223,432.847382 445.243225,430.919800 
	C442.004486,437.301025 438.252441,438.062531 432.658142,433.475616 
	C431.167297,433.767395 430.705536,435.075195 430.114288,436.240540 
	C425.593445,445.150970 421.070007,454.060181 416.572937,462.982635 
	C415.755310,464.604889 414.512238,466.546783 416.543610,467.887756 
	C418.093079,468.910583 420.206299,469.810425 422.086517,468.521210 
	C423.403625,467.618103 424.461548,467.103088 426.164093,467.532013 
	C431.120636,468.780731 436.070892,470.166718 441.280548,469.987213 
	C443.425507,469.913239 444.274567,471.329926 444.034760,473.258606 
	C443.521729,477.385223 442.893219,481.498810 442.235260,485.605408 
	C441.985382,487.165009 441.290649,488.696228 439.414825,488.465454 
	C437.232147,488.196991 437.025177,486.375366 437.294098,484.636780 
	C437.638458,482.410492 438.185852,480.215576 438.645752,478.007111 
	C437.364410,479.651367 437.009460,481.432648 436.513367,483.173706 
	C435.792999,485.702118 429.222961,489.622589 426.808716,489.028625 
	C425.916351,488.809082 425.274658,488.211731 425.197174,487.335663 
	C424.747650,482.253510 421.866516,482.263550 417.666382,482.901276 
	C413.666351,483.508606 410.481995,486.081512 406.524292,486.492981 
	C405.035095,486.647797 404.300842,487.890076 403.714417,489.100983 
	C399.080139,498.670502 394.901978,508.422943 391.630890,518.962585 
	C396.177673,518.998718 396.039886,521.344360 394.640961,524.309631 
	C394.073425,525.512634 393.568268,526.745117 392.643982,528.510498 
	C392.355072,529.116882 392.066193,529.723267 391.222961,530.647217 
M487.065125,536.348267 
	C486.041901,533.175171 485.018677,530.002014 483.995453,526.828918 
	C483.929932,530.980530 484.881744,534.820679 485.811768,538.666138 
	C486.145294,540.045227 486.197906,541.462036 484.562653,541.990051 
	C482.981750,542.500488 482.028015,541.444641 481.524384,540.109680 
	C480.887970,538.422485 480.417053,536.672913 479.874725,534.950256 
	C483.064758,545.002747 472.742279,541.216248 469.441803,544.461243 
	C471.009674,546.186829 472.581024,546.034424 474.008087,546.019958 
	C480.835968,545.950989 487.666504,545.882263 494.488159,545.612549 
	C496.443115,545.535278 499.442932,545.867065 498.897003,542.481323 
	C498.360046,539.150940 495.598083,539.487610 493.418427,540.417542 
	C489.734375,541.989380 488.155090,540.376160 487.065125,536.348267 
M439.413361,554.260864 
	C441.519043,558.389893 445.555054,558.033020 448.964233,557.594727 
	C451.699097,557.243103 452.462311,553.942200 451.072723,552.004578 
	C448.895233,548.968445 444.893677,550.406921 441.728790,549.871948 
	C439.698059,549.528625 439.432037,551.810242 439.413361,554.260864 
z"/>
<path fill="#000000" opacity="1.000000" stroke="none" 
	d="
M267.946899,289.459717 
	C268.281647,287.882599 268.477905,286.728546 268.845276,285.631805 
	C269.258636,284.397827 270.184235,283.712036 271.523651,283.981934 
	C272.666901,284.212250 273.136108,285.165070 273.146667,286.204987 
	C273.205597,292.006653 273.391479,297.816803 272.457458,303.579834 
	C272.200043,305.167938 271.675385,306.610443 269.689056,306.337158 
	C268.042938,306.110687 267.682159,304.718842 267.688751,303.338470 
	C267.710144,298.861450 267.812683,294.384827 267.946899,289.459717 
z"/>
<path fill="#000000" opacity="1.000000" stroke="none" 
	d="
M318.556824,494.107239 
	C314.922028,497.816162 313.964783,495.197357 313.992950,492.300385 
	C314.041290,487.325989 314.563293,482.351990 315.004639,477.388306 
	C315.135529,475.915802 315.515411,474.104401 317.480774,474.253632 
	C319.564819,474.411865 319.318634,476.352264 319.284363,477.772064 
	C319.156158,483.086670 318.910645,488.398438 318.556824,494.107239 
z"/>
<path fill="#000000" opacity="1.000000" stroke="none" 
	d="
M311.280609,387.072784 
	C311.269745,391.037140 311.307678,394.517029 311.218750,397.993713 
	C311.184296,399.339325 310.870911,400.807037 309.068573,400.713562 
	C307.660522,400.640503 307.124146,399.384857 307.112854,398.226929 
	C307.053284,392.103882 307.073303,385.979126 307.163361,379.856384 
	C307.181122,378.648346 307.804871,377.523529 309.293060,377.637024 
	C310.745667,377.747772 311.132874,378.909637 311.180481,380.128448 
	C311.264465,382.279327 311.251282,384.433960 311.280609,387.072784 
z"/>
<path fill="#000000" opacity="1.000000" stroke="none" 
	d="
M291.039612,385.289917 
	C290.677277,390.340729 290.400238,394.967712 289.867096,399.565033 
	C289.690033,401.091827 289.370087,403.232025 287.024567,402.808380 
	C285.233154,402.484802 284.942291,400.677917 285.163177,399.209808 
	C285.877686,394.461670 285.329102,389.595642 286.599854,384.901428 
	C286.957947,383.578613 287.159241,382.136566 288.829803,382.087799 
	C290.587311,382.036530 290.805420,383.517761 291.039612,385.289917 
z"/>
<path fill="#000000" opacity="1.000000" stroke="none" 
	d="
M265.214783,379.990540 
	C264.894806,383.423340 264.614685,386.397308 264.275574,389.364532 
	C264.095123,390.943787 263.580414,392.470795 261.629974,392.300232 
	C259.550842,392.118469 259.615173,390.333038 259.713409,388.866913 
	C260.034882,384.070465 260.429932,379.277649 260.893982,374.492859 
	C261.023224,373.160400 261.471069,371.754333 263.200592,371.754547 
	C265.016113,371.754761 265.239136,373.158234 265.266235,374.548340 
	C265.298523,376.207672 265.245941,377.868652 265.214783,379.990540 
z"/>
<path fill="#000000" opacity="1.000000" stroke="none" 
	d="
M529.745117,452.243347 
	C529.928467,450.479218 529.988586,449.146057 530.327393,447.888000 
	C530.596252,446.889801 531.410034,446.122375 532.535889,446.271759 
	C533.658752,446.420746 534.190796,447.336792 534.236755,448.405304 
	C534.464417,453.692810 534.684570,458.981323 534.819153,464.271667 
	C534.849060,465.447693 534.448730,466.674561 533.057495,466.920929 
	C531.309570,467.230469 530.793579,465.950409 530.480713,464.580536 
	C529.586243,460.664154 529.805420,456.676178 529.745117,452.243347 
z"/>
<path fill="#000000" opacity="1.000000" stroke="none" 
	d="
M248.626785,278.962158 
	C249.668274,285.773560 246.866669,291.925629 246.987183,298.379852 
	C247.008545,299.524261 246.273529,300.705597 244.860947,300.694305 
	C243.393692,300.682587 242.810257,299.456024 242.959976,298.290131 
	C243.735519,292.250458 243.730865,286.097931 245.416183,280.190430 
	C245.812149,278.802460 246.672348,277.809784 248.626785,278.962158 
z"/>
<path fill="#000000" opacity="1.000000" stroke="none" 
	d="
M272.915924,329.294678 
	C276.781067,334.364471 274.613953,340.280212 275.968109,345.620361 
	C276.200439,346.536499 275.134338,347.357239 274.063690,347.590729 
	C273.132477,347.793823 272.525909,347.290497 271.985229,346.590820 
	C270.400848,344.540527 269.482300,332.309631 270.872986,330.144165 
	C271.178040,329.669189 271.963531,329.502777 272.915924,329.294678 
z"/>
<path fill="#000000" opacity="1.000000" stroke="none" 
	d="
M520.853821,406.092224 
	C519.138123,406.306030 518.156067,405.634033 517.962280,404.363953 
	C517.163696,399.131531 516.371765,393.885040 516.783508,388.564148 
	C516.889343,387.195831 517.349304,385.913818 519.019836,385.752411 
	C519.930054,385.664490 520.891724,386.128174 520.852722,387.006317 
	C520.571899,393.332855 523.087891,399.605865 520.853821,406.092224 
z"/>
<path fill="#000000" opacity="1.000000" stroke="none" 
	d="
M224.414276,269.854462 
	C227.492752,268.889343 227.898743,270.817139 227.859619,272.719086 
	C227.771072,277.024506 227.470322,281.326111 227.224335,285.627472 
	C227.123932,287.383270 226.726608,289.151031 224.511826,289.037720 
	C222.237228,288.921356 222.071182,287.100403 222.314575,285.356689 
	C223.022552,280.284668 222.248367,275.037842 224.414276,269.854462 
z"/>
<path fill="#000000" opacity="1.000000" stroke="none" 
	d="
M616.725708,408.427338 
	C616.523621,406.584656 616.035400,404.794769 618.042175,404.344849 
	C619.780212,403.955170 620.090088,405.600952 620.528381,406.854187 
	C622.174561,411.560455 623.838867,416.260437 625.483948,420.967102 
	C625.947510,422.293427 626.246704,423.711060 624.541504,424.310669 
	C622.945312,424.871948 622.008972,423.790497 621.527832,422.444122 
	C619.906982,417.909149 618.360840,413.347504 616.725708,408.427338 
z"/>
<path fill="#000000" opacity="1.000000" stroke="none" 
	d="
M582.140808,499.001678 
	C581.993652,501.782288 581.952759,504.102753 581.708557,506.401672 
	C581.579529,507.615784 580.895142,508.606232 579.435852,508.528839 
	C578.516235,508.480103 577.747131,507.946045 577.711975,507.047241 
	C577.454407,500.456635 577.903564,493.929352 579.875549,487.588318 
	C579.960632,487.314697 580.715820,487.249451 581.653503,486.905914 
	C583.275085,490.814270 581.924072,494.741302 582.140808,499.001678 
z"/>
<path fill="#000000" opacity="1.000000" stroke="none" 
	d="
M613.279114,532.838379 
	C613.979614,535.310364 614.663147,537.367065 615.136963,539.470947 
	C615.362061,540.470215 614.997498,541.479431 613.859070,541.878723 
	C612.740906,542.270874 611.820068,541.791809 611.339355,540.845764 
	C608.739868,535.730591 607.850525,530.144470 607.108948,524.545715 
	C606.971375,523.507263 607.818298,522.690552 608.967834,522.574280 
	C610.155457,522.454102 610.844055,523.186707 611.120422,524.226257 
	C611.845642,526.954346 612.495911,529.702332 613.279114,532.838379 
z"/>
<path fill="#000000" opacity="1.000000" stroke="none" 
	d="
M626.757324,569.293945 
	C626.096436,571.263123 626.824402,574.098083 624.094666,573.678284 
	C621.594421,573.293762 622.544861,570.812378 622.586609,569.089539 
	C622.687256,564.932678 622.787659,560.774414 622.997803,556.622314 
	C623.064270,555.309509 623.329102,553.763000 625.081726,553.716858 
	C627.244324,553.659912 627.282593,555.408813 627.252380,556.906372 
	C627.171997,560.894531 626.983032,564.880615 626.757324,569.293945 
z"/>
<path fill="#000000" opacity="1.000000" stroke="none" 
	d="
M236.721024,350.197815 
	C232.985382,351.434235 233.096588,348.755493 232.821793,346.737701 
	C232.187790,342.082062 233.488388,337.528717 233.791611,332.918427 
	C233.875366,331.644806 234.552124,330.654022 236.011169,330.802612 
	C237.977219,331.002838 238.483383,332.516998 238.144806,334.061768 
	C237.000107,339.284607 237.713562,344.620941 236.721024,350.197815 
z"/>
<path fill="#000000" opacity="1.000000" stroke="none" 
	d="
M296.984009,490.366119 
	C298.519897,488.109772 296.130615,483.299286 300.286316,484.103119 
	C303.816620,484.785950 301.548859,488.537079 301.387054,490.948547 
	C301.188904,493.901062 300.769470,496.840302 300.392883,499.778503 
	C300.212616,501.184662 299.653809,502.416077 297.957428,502.318634 
	C295.919830,502.201599 295.656952,500.618805 295.798218,499.091187 
	C296.055420,496.309814 296.515442,493.547180 296.984009,490.366119 
z"/>
<path fill="#000000" opacity="1.000000" stroke="none" 
	d="
M634.096558,556.053467 
	C634.304749,552.970276 634.480225,550.318909 634.688538,547.670044 
	C634.783020,546.469360 635.013123,545.248413 636.533264,545.170532 
	C637.710205,545.110291 638.414062,545.982117 638.542358,547.010376 
	C639.140198,551.800537 639.217102,556.606262 638.495361,561.392517 
	C638.337036,562.442200 637.648010,563.236572 636.478455,563.257996 
	C635.295837,563.279724 634.590454,562.480774 634.438965,561.438843 
	C634.201416,559.804993 634.186584,558.138733 634.096558,556.053467 
z"/>
<path fill="#000000" opacity="1.000000" stroke="none" 
	d="
M581.532166,438.404968 
	C581.062683,441.446381 580.693298,444.057373 580.252319,446.656189 
	C580.042542,447.892639 579.435852,448.921295 577.970825,448.685364 
	C576.636719,448.470520 575.939941,447.406860 576.076721,446.168945 
	C576.619385,441.254974 577.259460,436.350647 577.947021,431.454498 
	C578.111450,430.283813 578.701416,429.113495 580.119690,429.174286 
	C581.886414,429.250000 582.124084,430.712158 582.086975,432.052185 
	C582.032227,434.027588 581.774292,435.997345 581.532166,438.404968 
z"/>
<path fill="#000000" opacity="1.000000" stroke="none" 
	d="
M602.342346,568.322876 
	C602.817505,564.296082 603.159058,560.690430 603.566772,557.092163 
	C603.735474,555.602173 603.949707,553.817871 606.023682,554.147827 
	C607.727417,554.418884 607.554749,556.064697 607.451294,557.370483 
	C607.139343,561.309204 606.832153,565.250427 606.391235,569.175842 
	C606.189209,570.974609 606.963196,573.940002 604.113525,573.782715 
	C600.966187,573.608887 601.881042,570.828125 602.342346,568.322876 
z"/>
<path fill="#000000" opacity="1.000000" stroke="none" 
	d="
M257.054169,251.068405 
	C256.599243,253.988327 259.528015,258.159058 255.690247,258.715454 
	C252.068573,259.240479 252.831528,254.620255 252.256622,252.144302 
	C251.624420,249.421646 251.701050,246.527847 251.544724,243.704407 
	C251.479080,242.518555 251.602173,241.259933 253.112808,240.995300 
	C254.827621,240.694885 255.603424,241.936127 255.880035,243.253113 
	C256.391602,245.688843 256.633972,248.181122 257.054169,251.068405 
z"/>
<path fill="#000000" opacity="1.000000" stroke="none" 
	d="
M517.057251,571.722961 
	C517.959839,566.980286 518.852234,562.615417 519.757446,558.253296 
	C520.045715,556.863953 520.624756,555.538513 522.303284,555.871582 
	C523.861938,556.180786 524.230896,557.493958 523.962524,558.977722 
	C523.198730,563.201111 522.480652,567.433350 521.654541,571.644531 
	C521.398743,572.948547 520.892822,574.280518 519.217224,574.340393 
	C517.737549,574.393250 517.300415,573.308167 517.057251,571.722961 
z"/>
<path fill="#000000" opacity="1.000000" stroke="none" 
	d="
M294.154907,347.193756 
	C293.638580,350.436127 295.921600,355.399017 291.602814,355.319794 
	C288.030060,355.254303 290.192078,350.381378 289.712646,347.681763 
	C289.252716,345.092041 289.178802,342.433563 288.940125,339.804810 
	C288.799377,338.254669 288.782349,336.505402 290.710052,336.294678 
	C292.654449,336.082153 292.988312,337.861145 293.203522,339.358856 
	C293.556213,341.813293 293.823425,344.280060 294.154907,347.193756 
z"/>
<path fill="#000000" opacity="1.000000" stroke="none" 
	d="
M587.412964,457.019592 
	C588.544189,462.022858 589.477661,466.716095 590.205994,471.440948 
	C590.447754,473.008820 590.640747,475.071289 588.231628,475.230499 
	C586.318115,475.356964 585.895630,473.755951 585.671692,472.190674 
	C585.086304,468.099823 584.410767,464.020111 583.920959,459.918091 
	C583.652710,457.671875 584.122070,455.829803 587.412964,457.019592 
z"/>
<path fill="#000000" opacity="1.000000" stroke="none" 
	d="
M629.258057,466.423370 
	C628.599609,463.123779 628.010254,460.211273 627.594543,457.274170 
	C627.414124,455.999329 627.278870,454.394531 629.092224,454.115753 
	C630.879456,453.840942 631.220947,455.325256 631.491089,456.648499 
	C632.316833,460.693970 632.905151,464.794403 634.711243,468.583801 
	C635.390869,470.009766 635.694824,471.657776 633.817749,472.352386 
	C631.892578,473.064789 631.275085,471.406250 630.679443,470.028778 
	C630.220093,468.966522 629.822571,467.877563 629.258057,466.423370 
z"/>
<path fill="#000000" opacity="1.000000" stroke="none" 
	d="
M575.180664,532.338135 
	C574.950684,528.945862 574.788269,525.986084 574.708740,523.024109 
	C574.675781,521.793579 575.097534,520.590027 576.468140,520.428711 
	C578.065552,520.240723 578.903687,521.391113 579.096069,522.806824 
	C579.583130,526.391296 580.021057,529.986938 580.308716,533.591736 
	C580.433655,535.158264 580.833740,537.355286 578.732239,537.766541 
	C576.274780,538.247314 576.021484,535.974304 575.596863,534.219543 
	C575.480591,533.739014 575.386169,533.253174 575.180664,532.338135 
z"/>
<path fill="#000000" opacity="1.000000" stroke="none" 
	d="
M561.833740,401.395630 
	C561.664978,404.572937 563.803528,409.029846 559.983032,409.475067 
	C555.781799,409.964691 557.813782,405.182587 557.337097,402.854767 
	C556.627319,399.388855 555.577209,395.548035 558.078247,391.844208 
	C562.035583,394.244263 560.889526,397.990875 561.833740,401.395630 
z"/>
<path fill="#000000" opacity="1.000000" stroke="none" 
	d="
M598.142639,492.806946 
	C600.538269,492.642578 601.022949,494.039825 600.955383,495.638031 
	C600.774170,499.925446 600.487122,504.208893 600.197449,508.490906 
	C600.089111,510.092133 599.554626,511.590454 597.611023,511.421936 
	C595.925293,511.275787 595.684509,509.788330 595.738953,508.420380 
	C595.946594,503.203735 595.968262,497.956268 598.142639,492.806946 
z"/>
<path fill="#000000" opacity="1.000000" stroke="none" 
	d="
M593.831055,526.514160 
	C594.251160,530.418335 594.583313,533.893372 595.008606,537.356873 
	C595.204956,538.956360 595.280151,540.594604 593.351624,540.932312 
	C591.380310,541.277527 591.065613,539.592285 590.600769,538.099670 
	C589.383118,534.190002 589.640625,530.187134 589.660400,526.197083 
	C589.667175,524.830750 589.851807,523.319824 591.608398,523.248962 
	C593.418335,523.176025 593.460999,524.815491 593.831055,526.514160 
z"/>
<path fill="#000000" opacity="1.000000" stroke="none" 
	d="
M360.342529,430.220062 
	C362.109985,429.827576 363.107666,430.460480 363.142120,431.807648 
	C363.260223,436.424042 363.254883,441.044678 363.218719,445.663116 
	C363.210510,446.707825 362.630310,447.677948 361.476929,447.715942 
	C359.801422,447.771088 359.070251,446.446045 359.094299,445.105072 
	C359.182098,440.210480 358.124481,435.234955 360.342529,430.220062 
z"/>
<path fill="#000000" opacity="1.000000" stroke="none" 
	d="
M615.813599,440.781586 
	C614.536072,441.074371 613.435486,440.888794 613.301880,440.089355 
	C612.513184,435.370575 611.839722,430.629211 611.287415,425.876862 
	C611.170776,424.873413 611.969604,424.010193 613.172485,423.987610 
	C614.324402,423.965912 615.145264,424.679688 615.338440,425.688782 
	C616.280762,430.612976 618.654907,435.472595 615.813599,440.781586 
z"/>
<path fill="#000000" opacity="1.000000" stroke="none" 
	d="
M487.319763,399.978333 
	C488.668488,404.935699 487.844116,409.516632 487.348114,414.099091 
	C487.214111,415.336975 486.719513,416.381348 485.241913,416.363525 
	C483.763062,416.345703 483.139923,415.222137 483.173859,414.046234 
	C483.297394,409.762146 483.475403,405.470947 483.895569,401.208313 
	C484.059570,399.544312 485.190491,398.507324 487.319763,399.978333 
z"/>
<path fill="#000000" opacity="1.000000" stroke="none" 
	d="
M578.657410,393.669403 
	C580.829895,392.473755 581.881042,393.450409 582.110168,395.166321 
	C582.657349,399.264038 583.015686,403.387665 583.409180,407.504761 
	C583.537292,408.845032 583.631592,410.391663 581.836548,410.626770 
	C579.885559,410.882263 579.161682,409.302887 579.051514,407.804413 
	C578.713562,403.207489 578.594910,398.594513 578.657410,393.669403 
z"/>
<path fill="#000000" opacity="1.000000" stroke="none" 
	d="
M593.310181,373.952576 
	C593.599548,376.678925 593.928894,378.965118 594.146606,381.261902 
	C594.276855,382.636414 594.109192,384.089478 592.401489,384.314178 
	C590.784607,384.526947 589.962036,383.377045 589.808594,381.926117 
	C589.444031,378.479523 589.094849,375.024353 588.956787,371.563934 
	C588.894653,370.005615 588.768433,367.828583 591.106567,367.810272 
	C593.489502,367.791626 593.130615,369.945709 593.270020,371.533417 
	C593.327698,372.190460 593.294800,372.855469 593.310181,373.952576 
z"/>
<path fill="#000000" opacity="1.000000" stroke="none" 
	d="
M608.812134,458.337830 
	C611.530029,462.569275 611.708862,467.249115 612.831482,471.664398 
	C613.202942,473.125153 612.753418,474.431213 611.269592,474.834625 
	C609.613403,475.284882 608.921204,474.019470 608.602661,472.639709 
	C607.715637,468.797363 606.819275,464.955353 606.044983,461.089508 
	C605.684692,459.291260 606.620483,458.292267 608.812134,458.337830 
z"/>
<path fill="#000000" opacity="1.000000" stroke="none" 
	d="
M573.494995,467.334045 
	C573.844299,469.850067 574.734619,472.656158 571.572632,472.810974 
	C568.962585,472.938751 569.144287,470.133942 569.037537,468.206604 
	C568.872498,465.228577 568.824585,462.241913 568.812500,459.258575 
	C568.807678,458.066162 569.094238,456.822876 570.594910,456.722168 
	C572.098389,456.621216 572.598083,457.881134 572.745056,459.006653 
	C573.087280,461.627380 573.215942,464.275970 573.494995,467.334045 
z"/>
<path fill="#000000" opacity="1.000000" stroke="none" 
	d="
M321.496521,429.193848 
	C321.592285,426.280975 321.624878,423.786072 321.723785,421.293823 
	C321.781830,419.831543 322.333252,418.643250 324.022369,418.600922 
	C325.781006,418.556854 326.259521,419.797302 326.280975,421.248322 
	C326.322784,424.074921 326.358978,426.905365 326.256378,429.729095 
	C326.180695,431.811523 326.537262,434.719696 323.374878,434.441223 
	C320.581482,434.195221 321.365570,431.544342 321.496521,429.193848 
z"/>
<path fill="#000000" opacity="1.000000" stroke="none" 
	d="
M229.718872,248.994507 
	C229.333145,245.129578 228.991196,241.690521 228.759018,238.244080 
	C228.675598,237.005783 229.170166,235.916534 230.578491,235.720596 
	C231.896378,235.537247 232.913376,236.120010 233.084625,237.492432 
	C233.532425,241.081436 234.299469,244.704697 234.127350,248.275177 
	C233.969788,251.543945 232.117432,252.283447 229.718872,248.994507 
z"/>
<path fill="#000000" opacity="1.000000" stroke="none" 
	d="
M532.110962,427.522583 
	C532.108765,422.321686 532.997070,417.552155 532.535828,412.716736 
	C532.427002,411.575409 532.509521,410.149841 534.048462,410.025726 
	C535.808960,409.883728 536.255066,411.295227 536.268860,412.701904 
	C536.313049,417.190338 536.441101,421.689423 536.187988,426.164703 
	C536.050415,428.596527 534.773926,430.005737 532.110962,427.522583 
z"/>
<path fill="#000000" opacity="1.000000" stroke="none" 
	d="
M515.671753,498.483093 
	C515.783142,496.825317 516.025635,495.644348 517.533630,495.540314 
	C518.974854,495.440918 519.648010,496.479218 519.866516,497.678619 
	C520.586609,501.631500 520.458130,505.626251 520.197754,509.611176 
	C520.127075,510.692780 519.492310,511.545227 518.314819,511.527985 
	C516.671387,511.504028 515.939880,510.313110 515.870605,508.895599 
	C515.708313,505.574921 515.717834,502.245880 515.671753,498.483093 
z"/>
<path fill="#000000" opacity="1.000000" stroke="none" 
	d="
M519.915649,537.131897 
	C520.189880,534.544983 520.447266,532.401306 520.659424,530.253113 
	C520.796021,528.869812 520.975647,527.404907 522.749878,527.436035 
	C524.559875,527.467712 524.696472,528.993469 524.670654,530.348511 
	C524.607300,533.671936 524.493713,536.995667 524.322937,540.315308 
	C524.241455,541.898193 524.626465,544.092163 522.229065,544.119507 
	C519.579895,544.149780 519.858032,541.871948 519.803711,540.066040 
	C519.778748,539.236572 519.851257,538.404236 519.915649,537.131897 
z"/>
<path fill="#000000" opacity="1.000000" stroke="none" 
	d="
M534.220825,510.253174 
	C534.953674,514.558044 535.654480,518.445374 536.218628,522.352478 
	C536.401978,523.622437 536.558533,525.245422 534.963257,525.733093 
	C532.958740,526.345947 532.386475,524.581970 532.015808,523.214722 
	C530.932434,519.218323 530.309448,515.125244 530.728271,510.978058 
	C530.987000,508.416382 531.837585,506.719971 534.220825,510.253174 
z"/>
<path fill="#000000" opacity="1.000000" stroke="none" 
	d="
M319.540955,567.082886 
	C317.922607,567.655273 316.918884,567.184509 316.336487,566.011719 
	C315.628906,564.586853 318.631317,554.242310 319.929932,553.382629 
	C320.688995,552.880127 321.520142,552.790527 322.253815,553.301514 
	C323.172852,553.941589 323.364655,554.998718 323.100830,555.980835 
	C322.116821,559.643738 321.686127,563.476501 319.540955,567.082886 
z"/>
<path fill="#000000" opacity="1.000000" stroke="none" 
	d="
M291.210358,308.827698 
	C290.635895,311.689636 291.612915,315.886200 288.377411,315.732971 
	C284.411316,315.545105 286.699707,311.618347 286.680756,309.280212 
	C286.663422,307.147064 286.961334,304.998199 287.281677,302.880676 
	C287.453613,301.743988 287.905304,300.480225 289.376373,300.521545 
	C291.231842,300.573730 291.237030,302.096252 291.274017,303.414185 
	C291.320435,305.066040 291.250519,306.721191 291.210358,308.827698 
z"/>
<path fill="#000000" opacity="1.000000" stroke="none" 
	d="
M548.790100,559.634155 
	C549.392029,563.365051 548.466309,566.603882 548.207275,569.883057 
	C548.083679,571.447571 547.228516,572.935364 545.426514,572.740479 
	C543.777222,572.562012 543.631470,570.964722 543.744629,569.620422 
	C544.034668,566.175232 544.074951,562.652161 544.886841,559.324097 
	C545.665466,556.132446 547.348450,556.744263 548.790100,559.634155 
z"/>
<path fill="#000000" opacity="1.000000" stroke="none" 
	d="
M596.959595,415.710632 
	C596.089905,411.649200 595.317322,407.954285 594.743774,404.228790 
	C594.550598,402.974121 594.601379,401.333832 596.341675,401.113312 
	C598.057800,400.895844 598.501831,402.480072 598.757996,403.718140 
	C599.455811,407.090729 600.130859,410.483429 600.506714,413.902039 
	C600.782166,416.406647 599.956848,417.996216 596.959595,415.710632 
z"/>
<path fill="#000000" opacity="1.000000" stroke="none" 
	d="
M304.453339,455.833923 
	C302.950684,456.690002 301.903625,456.533203 301.182220,455.345734 
	C300.110840,453.582214 301.371094,443.496796 302.778381,441.885834 
	C303.379456,441.197723 304.079773,440.796051 304.929199,441.063019 
	C306.297089,441.492920 306.476868,442.670532 306.323303,443.874603 
	C305.826263,447.772675 305.278107,451.664246 304.453339,455.833923 
z"/>
<path fill="#000000" opacity="1.000000" stroke="none" 
	d="
M595.816101,430.993378 
	C599.491638,435.392792 597.250305,439.630859 595.751282,443.713165 
	C595.135376,445.390320 593.336060,445.438538 592.281250,443.660583 
	C591.316101,442.033752 593.738342,432.571747 595.816101,430.993378 
z"/>
<path fill="#000000" opacity="1.000000" stroke="none" 
	d="
M253.218597,353.167603 
	C253.115402,355.253723 253.156479,356.924133 252.870834,358.536682 
	C252.590759,360.117920 252.262787,362.212280 250.052322,361.867249 
	C247.652191,361.492645 247.885971,359.365845 248.062317,357.516327 
	C248.265320,355.387299 248.487442,353.259857 248.666077,351.128784 
	C248.789658,349.654419 248.622284,347.898071 250.669479,347.741058 
	C252.681427,347.586731 252.980835,349.206818 253.143204,350.748810 
	C253.212128,351.403503 253.196838,352.067078 253.218597,353.167603 
z"/>
<path fill="#000000" opacity="1.000000" stroke="none" 
	d="
M633.418213,525.020691 
	C634.397583,529.593994 634.933289,533.732788 633.512512,538.194580 
	C630.119202,535.558411 628.546997,522.782227 630.801941,519.626160 
	C633.027283,520.585022 632.863831,522.770325 633.418213,525.020691 
z"/>
<path fill="#000000" opacity="1.000000" stroke="none" 
	d="
M537.536804,532.820679 
	C538.635132,536.946655 538.224548,540.762878 538.137207,544.562744 
	C538.109070,545.785889 537.577026,546.869568 536.120422,546.935608 
	C534.908936,546.990479 534.265869,546.104980 534.137207,545.097046 
	C533.652710,541.302979 533.612854,537.483337 534.331848,533.719177 
	C534.628662,532.165222 535.699829,531.485352 537.536804,532.820679 
z"/>
<path fill="#000000" opacity="1.000000" stroke="none" 
	d="
M420.129761,553.485840 
	C422.234161,551.115112 423.696655,551.862610 424.086212,554.177551 
	C424.696014,557.801392 423.666840,561.357300 422.756073,564.851990 
	C422.496399,565.848267 421.609314,566.519653 420.471161,566.292053 
	C419.063049,566.010620 418.697815,564.859924 418.817108,563.650269 
	C419.138947,560.387756 419.572388,557.136230 420.129761,553.485840 
z"/>
<path fill="#000000" opacity="1.000000" stroke="none" 
	d="
M343.552856,385.920654 
	C343.901184,384.080994 344.543976,382.925110 346.233429,383.396454 
	C347.425415,383.729004 348.157318,384.766571 348.027618,386.038818 
	C347.745392,388.806732 347.421661,391.578461 346.918671,394.312531 
	C346.653198,395.755707 346.075958,397.370148 344.084747,396.997131 
	C342.235229,396.650665 341.955261,395.227722 342.246033,393.584412 
	C342.674194,391.164673 343.070740,388.739380 343.552856,385.920654 
z"/>
<path fill="#000000" opacity="1.000000" stroke="none" 
	d="
M625.046631,501.971008 
	C626.277466,497.932831 625.172058,493.679382 627.859863,490.492859 
	C629.984253,490.539276 630.293396,491.876312 630.192200,493.215027 
	C629.944336,496.495392 629.578308,499.769897 629.145386,503.031586 
	C628.994080,504.171356 628.511780,505.485138 627.146851,505.505127 
	C625.119568,505.534882 624.915833,503.968353 625.046631,501.971008 
z"/>
<path fill="#000000" opacity="1.000000" stroke="none" 
	d="
M366.765900,481.390442 
	C366.538300,482.624054 366.430145,483.448486 366.270752,484.262939 
	C365.980804,485.744324 365.737457,487.529449 363.743744,487.323822 
	C361.434326,487.085632 361.541931,485.057770 361.785217,483.447754 
	C362.180908,480.829071 362.858093,478.251587 363.450775,475.664581 
	C363.718567,474.495636 364.140686,473.242035 365.614380,473.396790 
	C367.045837,473.547150 367.361725,474.797791 367.301910,476.025635 
	C367.221375,477.679230 367.014771,479.326660 366.765900,481.390442 
z"/>
<path fill="#000000" opacity="1.000000" stroke="none" 
	d="
M394.919861,439.504425 
	C395.279114,442.892120 395.512970,445.856598 395.794464,448.816589 
	C395.929688,450.238464 395.828949,451.660919 394.201172,451.971588 
	C392.553558,452.286041 391.841583,451.071198 391.690735,449.597656 
	C391.354156,446.310242 391.022675,443.020569 390.797607,439.724396 
	C390.717438,438.550262 390.991150,437.259705 392.420654,437.033478 
	C393.845093,436.808044 394.390015,437.952271 394.919861,439.504425 
z"/>
<path fill="#000000" opacity="1.000000" stroke="none" 
	d="
M508.936127,432.616699 
	C505.425873,430.818970 504.577942,420.353149 507.437225,418.437866 
	C508.998657,417.391937 510.224548,418.274719 510.178467,419.823975 
	C510.053223,424.031799 511.345581,428.358429 508.936127,432.616699 
z"/>
<path fill="#000000" opacity="1.000000" stroke="none" 
	d="
M375.135437,520.345947 
	C372.365967,523.641479 370.937836,522.386353 370.873749,519.169495 
	C370.814606,516.202087 371.411469,513.215759 371.797546,510.247986 
	C371.960144,508.998383 372.611572,507.978516 374.053497,508.084930 
	C375.463318,508.188965 376.113647,509.270233 376.042999,510.515320 
	C375.864227,513.667419 375.510101,516.809631 375.135437,520.345947 
z"/>
<path fill="#000000" opacity="1.000000" stroke="none" 
	d="
M567.667236,378.217438 
	C567.766724,376.344696 567.505310,374.540100 569.621948,374.469147 
	C571.287720,374.413361 571.735352,375.984070 571.918579,377.231720 
	C572.370544,380.309601 572.640137,383.417389 572.884155,386.520966 
	C572.968140,387.589081 572.338501,388.521545 571.296692,388.743622 
	C569.950256,389.030640 569.066833,388.196381 568.852600,386.917603 
	C568.392639,384.172607 568.057800,381.406647 567.667236,378.217438 
z"/>
<path fill="#000000" opacity="1.000000" stroke="none" 
	d="
M607.021118,378.821045 
	C607.328369,375.617859 605.646606,372.510956 609.032532,369.451569 
	C610.839966,374.854858 611.368835,379.845398 611.060303,384.958099 
	C611.006409,385.852020 610.151733,386.272400 609.227600,386.206482 
	C608.277405,386.138733 607.687988,385.500610 607.565613,384.657135 
	C607.307190,382.874969 607.204468,381.070190 607.021118,378.821045 
z"/>
<path fill="#000000" opacity="1.000000" stroke="none" 
	d="
M639.117065,498.910004 
	C637.810608,500.224548 636.778931,500.207428 636.065857,498.876343 
	C634.893982,496.688690 637.518921,485.387665 640.447876,482.471710 
	C640.655212,488.396698 640.551697,493.478821 639.117065,498.910004 
z"/>
<path fill="#000000" opacity="1.000000" stroke="none" 
	d="
M559.791138,434.250427 
	C560.266174,432.086578 560.707642,430.352112 561.215820,428.355865 
	C563.201599,431.047089 563.542786,443.866089 561.851501,445.546021 
	C561.470276,445.924774 560.630066,446.147675 560.108093,446.016541 
	C558.921082,445.718414 558.793457,444.584381 558.872986,443.595612 
	C559.112244,440.619202 559.455200,437.651123 559.791138,434.250427 
z"/>
<path fill="#000000" opacity="1.000000" stroke="none" 
	d="
M500.759674,490.630493 
	C500.720612,487.370178 500.694855,484.560059 500.755585,481.751801 
	C500.781860,480.536774 501.180206,479.358063 502.595856,479.213745 
	C504.068878,479.063538 504.706024,480.234528 504.775330,481.405029 
	C504.960297,484.528625 505.439392,487.760132 504.860596,490.767609 
	C504.306488,493.646942 502.425964,494.200897 500.759674,490.630493 
z"/>
<path fill="#000000" opacity="1.000000" stroke="none" 
	d="
M342.466370,450.135071 
	C341.900055,447.617554 341.570404,445.485962 342.203644,443.358856 
	C342.552399,442.187286 343.284790,441.247742 344.666656,441.344177 
	C346.097778,441.444000 346.606812,442.530762 346.685638,443.756104 
	C346.811890,445.719696 346.696930,447.701904 346.880188,449.657837 
	C347.026520,451.219421 347.234985,452.923157 345.498016,453.456451 
	C343.138977,454.180756 342.907288,452.162720 342.466370,450.135071 
z"/>
<path fill="#000000" opacity="1.000000" stroke="none" 
	d="
M339.180054,540.331909 
	C342.552429,543.977478 341.890991,548.244446 341.543640,552.425049 
	C341.476562,553.232361 340.738495,553.865845 339.827301,554.003967 
	C338.911469,554.142822 337.772186,553.673950 337.859436,552.957336 
	C338.370483,548.760254 335.398041,544.294678 339.180054,540.331909 
z"/>
<path fill="#000000" opacity="1.000000" stroke="none" 
	d="
M611.317139,500.289276 
	C612.323364,497.676422 610.248657,493.250946 613.837952,493.457275 
	C617.592468,493.673096 615.532776,497.941650 615.962891,500.452728 
	C615.989990,500.611053 615.968750,500.783966 615.939819,500.944672 
	C615.603027,502.816467 615.963745,505.675232 613.459656,505.652039 
	C610.405151,505.623749 611.007141,502.826141 611.317139,500.289276 
z"/>
<path fill="#000000" opacity="1.000000" stroke="none" 
	d="
M369.666016,416.358276 
	C366.208893,417.031769 366.192047,414.585052 366.355408,412.778290 
	C366.611755,409.942169 365.723389,406.542389 368.411163,404.510132 
	C370.099121,403.233856 371.235626,404.738068 371.186066,406.455353 
	C371.092316,409.701935 371.377411,413.027008 369.666016,416.358276 
z"/>
<path fill="#000000" opacity="1.000000" stroke="none" 
	d="
M364.914398,547.695129 
	C364.125732,549.707886 364.888824,552.824219 361.888977,552.258240 
	C358.747833,551.665588 360.083130,548.995056 360.416473,546.976562 
	C360.443359,546.813904 360.464783,546.648010 360.514099,546.491699 
	C361.244507,544.176575 360.525208,539.918640 363.939545,540.539001 
	C367.657959,541.214600 364.708954,544.952576 364.914398,547.695129 
z"/>
<path fill="#000000" opacity="1.000000" stroke="none" 
	d="
M422.890442,393.292786 
	C426.812836,396.792847 425.035950,401.020782 424.915161,404.983246 
	C424.889038,405.840240 423.948853,406.258392 423.040649,406.271606 
	C422.100250,406.285278 421.219482,405.760437 421.210510,404.936707 
	C421.167572,401.003632 419.234009,396.835663 422.890442,393.292786 
z"/>
<path fill="#000000" opacity="1.000000" stroke="none" 
	d="
M323.968262,519.210266 
	C324.683716,516.580994 325.274841,514.336060 326.010712,512.139587 
	C326.445679,510.841095 327.204987,509.629486 328.864807,509.965668 
	C330.635620,510.324341 330.656769,511.823273 330.368378,513.124390 
	C329.832703,515.541382 329.458160,518.115479 328.313354,520.246399 
	C326.737671,523.179565 324.895996,523.206604 323.968262,519.210266 
z"/>
<path fill="#000000" opacity="1.000000" stroke="none" 
	d="
M518.797058,465.215302 
	C518.566345,467.745026 518.429138,469.889648 518.136414,472.012848 
	C517.948181,473.377258 517.359497,474.711090 515.724060,474.659393 
	C513.988953,474.604553 513.643433,473.160156 513.759033,471.794067 
	C513.966980,469.337067 514.377258,466.897430 514.693970,464.449341 
	C514.874451,463.054291 515.229858,461.688293 516.982483,461.827759 
	C518.774536,461.970367 518.726379,463.498962 518.797058,465.215302 
z"/>
<path fill="#000000" opacity="1.000000" stroke="none" 
	d="
M205.008743,282.865112 
	C202.846115,279.330353 203.751068,275.940918 204.823486,272.689209 
	C205.443665,270.808716 207.032562,270.114227 208.539307,272.015839 
	C210.127319,274.020050 207.908890,281.534180 205.008743,282.865112 
z"/>
<path fill="#000000" opacity="1.000000" stroke="none" 
	d="
M542.101624,383.552124 
	C542.231567,386.452087 542.308411,388.920990 542.297119,391.389496 
	C542.292419,392.407349 541.990601,393.443756 540.833008,393.682587 
	C539.413818,393.975464 538.667053,392.983673 538.351929,391.826202 
	C537.607910,389.092896 537.361938,386.199677 537.955078,383.502930 
	C538.671326,380.246643 540.367737,380.240906 542.101624,383.552124 
z"/>
<path fill="#000000" opacity="1.000000" stroke="none" 
	d="
M195.567413,266.626648 
	C192.686874,267.477264 191.822174,266.051575 192.127060,263.893982 
	C192.471359,261.457397 193.168182,259.067902 193.764114,256.670929 
	C194.021973,255.633820 194.625977,254.854431 195.848160,255.050995 
	C197.036652,255.242126 197.496033,256.179199 197.442612,257.209747 
	C197.281555,260.315948 197.558044,263.512543 195.567413,266.626648 
z"/>
<path fill="#000000" opacity="1.000000" stroke="none" 
	d="
M232.430389,316.448303 
	C230.221848,313.358154 231.812378,310.559753 232.459045,307.773499 
	C232.729340,306.608948 233.689148,305.813538 235.061508,305.974182 
	C235.948807,306.078003 236.502060,306.626343 236.868546,307.441681 
	C238.003845,309.967285 235.643463,315.271057 232.430389,316.448303 
z"/>
<path fill="#000000" opacity="1.000000" stroke="none" 
	d="
M601.444336,352.655518 
	C601.558777,355.047089 601.767517,357.014008 601.686279,358.968872 
	C601.646667,359.924530 601.040771,360.946777 599.828369,360.853912 
	C599.280334,360.811920 598.611816,360.364075 598.274414,359.899506 
	C596.942688,358.065887 598.108765,348.790436 600.014343,346.388641 
	C602.195801,347.959778 601.038940,350.303162 601.444336,352.655518 
z"/>
<path fill="#000000" opacity="1.000000" stroke="none" 
	d="
M273.074158,270.094299 
	C271.749634,271.719879 270.282166,271.659821 269.826385,270.126160 
	C268.895935,266.995361 268.399017,263.730103 267.829468,260.501526 
	C267.678375,259.645233 268.186523,258.886139 269.147614,258.720978 
	C270.293549,258.524139 270.999115,259.179779 271.466797,260.133270 
	C272.952911,263.163177 273.515625,266.363312 273.074158,270.094299 
z"/>
<path fill="#000000" opacity="1.000000" stroke="none" 
	d="
M587.508667,558.187256 
	C586.978271,560.269836 586.320251,561.937195 584.133789,561.091187 
	C582.368408,560.408142 582.723877,558.703979 583.043457,557.246582 
	C583.393982,555.648193 583.769653,554.046509 584.282898,552.495361 
	C584.724976,551.159363 584.966370,549.244202 587.018311,549.733948 
	C589.024597,550.212769 588.401123,552.090393 588.321960,553.465149 
	C588.237854,554.924500 587.857910,556.366882 587.508667,558.187256 
z"/>
<path fill="#000000" opacity="1.000000" stroke="none" 
	d="
M498.772888,441.504822 
	C500.900848,444.302155 500.371277,447.173615 500.208527,449.964111 
	C500.125580,451.386169 499.455475,452.634827 497.830383,452.647552 
	C496.068268,452.661377 495.769257,451.272675 495.716919,449.869110 
	C495.636566,447.713501 495.530396,445.554596 495.574585,443.399933 
	C495.612244,441.564148 496.485260,440.593109 498.772888,441.504822 
z"/>
<path fill="#000000" opacity="1.000000" stroke="none" 
	d="
M404.100403,409.718597 
	C401.619324,411.844147 400.457062,410.618774 400.634308,408.359100 
	C400.862854,405.446045 401.655090,402.567169 402.338348,399.705505 
	C402.565826,398.752808 403.263062,397.815643 404.443481,398.037140 
	C405.834564,398.298187 406.208588,399.415161 405.976440,400.675201 
	C405.441925,403.576935 404.836456,406.465576 404.100403,409.718597 
z"/>
<path fill="#000000" opacity="1.000000" stroke="none" 
	d="
M386.978638,481.387024 
	C387.194946,479.507416 387.147339,477.704346 389.245300,477.743805 
	C391.383240,477.783966 391.188324,479.601166 391.305603,481.072235 
	C391.318817,481.237732 391.352173,481.415192 391.310730,481.569519 
	C390.611969,484.171661 393.066315,488.864624 389.134003,488.974457 
	C385.928925,489.063995 387.460846,484.384064 386.978638,481.387024 
z"/>
<path fill="#000000" opacity="1.000000" stroke="none" 
	d="
M472.159363,568.905029 
	C471.276764,570.206299 470.458862,571.072388 469.133911,570.480469 
	C467.769379,569.870972 467.960114,568.677246 468.246674,567.519714 
	C468.719604,565.609436 469.215546,563.704712 469.687592,561.794189 
	C470.030426,560.406616 470.677124,559.108643 472.301178,559.549377 
	C473.835449,559.965637 473.952454,561.501831 473.701782,562.834106 
	C473.339417,564.759888 472.786285,566.649780 472.159363,568.905029 
z"/>
<path fill="#000000" opacity="1.000000" stroke="none" 
	d="
M583.281494,362.732727 
	C581.727600,363.634674 580.525574,363.249390 580.267944,361.957092 
	C579.548584,358.349274 578.899353,354.671631 581.224060,350.109192 
	C584.221741,354.454346 584.070068,358.411041 583.281494,362.732727 
z"/>
<path fill="#000000" opacity="1.000000" stroke="none" 
	d="
M351.594727,522.566650 
	C351.872040,520.327393 351.246582,517.668091 354.197601,517.765991 
	C356.839111,517.853699 356.354248,520.290894 356.210419,521.989136 
	C356.026947,524.156189 356.611359,527.382568 353.531250,527.532776 
	C350.586670,527.676453 351.558929,524.815002 351.594727,522.566650 
z"/>
<path fill="#000000" opacity="1.000000" stroke="none" 
	d="
M301.797302,535.012268 
	C302.506012,533.489990 302.913116,532.111145 303.811493,531.237366 
	C304.960754,530.119507 306.752014,530.425171 306.940338,531.987793 
	C307.303314,534.999390 306.145996,537.820679 304.320587,540.250366 
	C304.080139,540.570374 302.962799,540.604004 302.516235,540.333435 
	C300.390747,539.045776 301.594574,537.104370 301.797302,535.012268 
z"/>
<path fill="#000000" opacity="1.000000" stroke="none" 
	d="
M342.503693,486.727356 
	C343.099396,484.531647 343.055817,481.802429 345.873840,482.606812 
	C348.106476,483.244049 347.174438,485.617645 347.021973,487.334229 
	C346.950439,488.139282 346.620361,488.918793 346.441803,489.717560 
	C346.068024,491.389954 345.574982,493.184662 343.393341,492.676483 
	C341.574890,492.252991 341.639709,490.547089 341.903870,489.022064 
	C342.015106,488.379944 342.239410,487.757385 342.503693,486.727356 
z"/>
<path fill="#000000" opacity="1.000000" stroke="none" 
	d="
M412.363953,425.504395 
	C416.913452,427.845276 415.630920,432.075165 415.893433,435.785797 
	C415.918243,436.136292 415.016083,436.805054 414.475586,436.890350 
	C413.346863,437.068512 412.429169,436.293060 412.295685,435.286346 
	C411.873444,432.100800 410.364807,428.917633 412.363953,425.504395 
z"/>
<path fill="#000000" opacity="1.000000" stroke="none" 
	d="
M537.392029,480.468872 
	C539.258484,484.187988 538.291992,487.811310 538.199219,491.369263 
	C538.158142,492.945679 537.049011,493.844757 535.504944,492.783142 
	C533.474731,491.387329 534.714905,481.934570 537.392029,480.468872 
z"/>
<path fill="#000000" opacity="1.000000" stroke="none" 
	d="
M387.725830,551.795410 
	C390.811157,554.679260 388.922607,557.626648 388.140381,560.515625 
	C387.914612,561.349426 387.078278,561.784424 386.134460,561.587585 
	C384.949402,561.340454 384.395264,560.420227 384.596466,559.379211 
	C385.112396,556.710022 384.665497,553.646545 387.725830,551.795410 
z"/>
<path fill="#000000" opacity="1.000000" stroke="none" 
	d="
M479.334198,436.827576 
	C477.627289,434.262329 477.670197,432.112061 480.397644,429.601318 
	C482.012848,432.647064 484.218842,434.981598 479.334198,436.827576 
z"/>
<path fill="#000000" opacity="1.000000" stroke="none" 
	d="
M310.346436,671.646057 
	C310.584900,674.736450 313.764069,678.710144 309.652649,679.700012 
	C305.678772,680.656677 306.227356,675.872803 305.443512,673.231812 
	C303.868256,667.924194 303.340729,662.484253 303.629852,656.965027 
	C303.697540,655.673218 303.514282,654.027954 305.321381,653.837219 
	C307.173035,653.641785 307.298676,655.310669 307.543518,656.571655 
	C308.491394,661.453674 309.370361,666.349121 310.346436,671.646057 
z"/>
<path fill="#000000" opacity="1.000000" stroke="none" 
	d="
M311.807617,664.933044 
	C311.698883,663.186157 311.540253,661.693481 313.442108,661.542175 
	C314.878998,661.427734 315.407166,662.646362 315.850403,663.714172 
	C318.272644,669.549683 320.698822,675.384644 323.011932,681.263733 
	C323.628113,682.829834 323.968048,684.806946 322.019073,685.638428 
	C319.893524,686.545288 319.025299,684.604614 318.448059,683.107727 
	C316.174805,677.212585 314.049072,671.260559 311.807617,664.933044 
z"/>
<path fill="#000000" opacity="1.000000" stroke="none" 
	d="
M328.132263,670.418701 
	C333.018677,676.509094 335.161255,683.916260 339.236694,690.282593 
	C339.756256,691.094177 339.761780,692.295410 338.789642,692.980835 
	C337.881165,693.621277 336.758789,693.513367 336.072754,692.694397 
	C330.970184,686.603516 327.860046,679.567932 326.501953,671.765869 
	C326.439758,671.408386 327.333008,670.884644 328.132263,670.418701 
z"/>
<path fill="#000000" opacity="1.000000" stroke="none" 
	d="
M565.927185,669.169922 
	C567.693542,670.630554 566.956299,672.076172 566.492371,673.455505 
	C564.806580,678.467224 563.115112,683.477905 561.338806,688.457947 
	C560.783508,690.014893 560.014893,691.848328 557.874573,691.097046 
	C555.994202,690.437012 556.439453,688.606506 556.927795,687.246704 
	C558.882507,681.803528 560.956238,676.402588 563.036072,671.005371 
	C563.460266,669.904480 564.145691,668.944275 565.927185,669.169922 
z"/>
<path fill="#000000" opacity="1.000000" stroke="none" 
	d="
M542.278442,697.052979 
	C541.384216,698.478699 540.757568,699.681519 539.868469,700.641174 
	C538.981201,701.598694 537.777161,701.610168 536.721375,700.773254 
	C535.788208,700.033508 535.819580,699.020996 536.312927,698.075867 
	C538.924927,693.071594 541.612244,688.109070 543.301941,682.679626 
	C543.603516,681.710571 544.483521,680.918396 545.621277,681.332886 
	C547.168823,681.896851 547.276489,683.287964 547.028381,684.668884 
	C546.255005,688.971985 544.491516,692.906433 542.278442,697.052979 
z"/>
<path fill="#000000" opacity="1.000000" stroke="none" 
	d="
M554.772644,674.513184 
	C557.759888,673.463684 558.708435,674.951965 557.880737,677.088440 
	C555.912842,682.167603 553.591980,687.112366 551.335449,692.075867 
	C550.727661,693.412720 549.583557,694.174927 548.106812,693.336304 
	C546.468323,692.405884 546.563660,690.877441 547.259766,689.433655 
	C549.625793,684.526794 552.066040,679.655701 554.772644,674.513184 
z"/>
<path fill="#000000" opacity="1.000000" stroke="none" 
	d="
M366.625122,701.513794 
	C362.181244,701.128479 353.356689,693.308594 352.425201,689.523743 
	C352.199127,688.605103 352.290985,687.860657 353.008881,687.317017 
	C353.716370,686.781189 354.814087,686.593384 355.301453,687.247375 
	C358.830963,691.983398 364.136292,695.100403 367.119995,700.305786 
	C367.235565,700.507446 366.975464,700.924438 366.625122,701.513794 
z"/>
<path fill="#000000" opacity="1.000000" stroke="none" 
	d="
M349.351074,691.723145 
	C350.327087,693.088867 351.432678,694.081299 351.747101,695.281128 
	C352.253815,697.214600 351.108124,698.140503 349.193665,697.544189 
	C345.817657,696.492554 338.611206,682.802002 339.787109,678.265869 
	C343.153046,683.015442 346.139282,687.229187 349.351074,691.723145 
z"/>
<path fill="#000000" opacity="1.000000" stroke="none" 
	d="
M532.991272,690.919128 
	C535.575012,690.995667 535.791931,692.450806 534.994263,693.972961 
	C533.147766,697.496582 531.134766,700.936890 529.082520,704.346741 
	C528.285767,705.670593 527.047485,706.878906 525.415344,705.746704 
	C524.067261,704.811584 524.597412,703.325195 525.283508,702.151367 
	C527.532104,698.304382 529.384033,694.189209 532.991272,690.919128 
z"/>
<path fill="#000000" opacity="1.000000" stroke="none" 
	d="
M375.266632,704.730225 
	C372.974670,702.096802 370.906036,699.729797 368.936768,697.282837 
	C368.204712,696.373169 367.614838,695.200745 368.697021,694.165527 
	C369.917999,692.997498 371.244781,693.475281 372.190765,694.538330 
	C374.388000,697.007507 376.489410,699.565308 378.551758,702.149292 
	C379.205841,702.968872 379.292511,704.030884 378.563568,704.902283 
	C377.621002,706.029175 376.559814,705.810303 375.266632,704.730225 
z"/>
<path fill="#000000" opacity="1.000000" stroke="none" 
	d="
M515.535278,699.638672 
	C517.379456,699.052673 518.800842,699.468201 518.554932,701.146179 
	C518.193481,703.613586 515.963013,704.764404 513.960876,705.861450 
	C513.033386,706.369690 511.912598,706.238159 511.368378,705.253540 
	C510.407135,703.514404 511.832214,702.563049 512.893921,701.589539 
	C513.612854,700.930298 514.437622,700.386536 515.535278,699.638672 
z"/>
<path fill="#000000" opacity="1.000000" stroke="none" 
	d="
M421.838867,215.952164 
	C427.705872,205.549805 434.367340,196.237305 443.485809,188.933701 
	C452.905914,181.388489 462.340729,180.304138 470.626160,185.770386 
	C475.614075,189.061111 478.260376,194.282089 480.024109,199.550385 
	C486.252930,218.155914 491.532257,237.075806 495.921631,256.188110 
	C499.012451,269.646118 493.302246,279.796967 480.575806,285.170593 
	C464.375824,292.010925 447.527985,292.514130 430.671478,288.426025 
	C418.203766,285.402344 411.166351,275.152283 410.623810,261.773346 
	C409.964508,245.515060 414.039642,230.485397 421.838867,215.952164 
M485.512848,242.863754 
	C482.596130,231.599518 479.669739,220.337753 476.767670,209.069733 
	C475.686493,204.871933 474.528717,200.700195 472.362823,196.906158 
	C468.049255,189.349884 460.037659,186.979279 452.336548,190.936737 
	C446.570984,193.899567 442.157959,198.388489 438.334839,203.499680 
	C425.813446,220.239624 416.932617,238.371216 417.323822,259.901825 
	C417.508972,270.091675 422.761261,278.305084 431.918671,281.068024 
	C448.691498,286.128632 465.215240,284.467712 480.907623,276.802460 
	C487.989075,273.343384 490.768250,266.506805 489.208435,258.706329 
	C488.199280,253.659805 486.846313,248.682053 485.512848,242.863754 
z"/>
<path fill="#000000" opacity="1.000000" stroke="none" 
	d="
M421.732483,302.438538 
	C419.972717,298.966553 421.746002,298.319489 424.404846,298.506775 
	C428.536804,298.797882 432.590332,299.639832 436.769867,299.782227 
	C448.531982,300.182892 459.929749,298.594788 471.031830,294.709259 
	C472.645264,294.144531 474.870880,292.799438 475.698364,295.352356 
	C476.458954,297.698730 474.019043,298.328552 472.386963,298.894287 
	C455.949432,304.591980 439.251221,307.091461 421.732483,302.438538 
z"/>
<path fill="#000000" opacity="1.000000" stroke="none" 
	d="
M402.501160,160.252472 
	C407.700043,158.065430 411.630951,158.995667 413.679108,162.589233 
	C415.851532,166.400757 414.871277,171.404480 411.387695,173.757233 
	C407.780212,176.193726 404.405945,175.509506 401.470062,172.562210 
	C398.337860,169.417877 398.669128,164.875168 402.501160,160.252472 
z"/>
<path fill="#000000" opacity="1.000000" stroke="none" 
	d="
M509.892700,168.085876 
	C514.247498,168.701813 516.552979,171.071701 517.139404,174.945450 
	C517.624329,178.148865 516.518127,180.904282 513.756226,182.718628 
	C511.172516,184.415939 508.357880,184.422913 505.728577,182.865326 
	C502.709839,181.076981 501.390961,178.196060 501.993164,174.799332 
	C502.711395,170.748032 505.275299,168.386154 509.892700,168.085876 
z"/>
<path fill="#000000" opacity="1.000000" stroke="none" 
	d="
M459.694122,310.581757 
	C460.089081,312.421783 459.157928,312.944427 457.918457,313.282867 
	C451.713654,314.976898 445.445526,315.190155 439.157745,313.936462 
	C437.794159,313.664551 435.882965,313.316498 436.150391,311.289246 
	C436.420807,309.239532 438.249603,309.385712 439.708435,309.617279 
	C446.285706,310.661163 452.943787,308.890167 459.694122,310.581757 
z"/>
<path fill="#000000" opacity="1.000000" stroke="none" 
	d="
M392.839355,528.237305 
	C393.833099,527.146790 394.794525,526.434998 395.403442,525.494934 
	C399.492249,519.182495 399.711121,518.854919 405.456451,523.333679 
	C406.951447,524.499084 408.239258,522.729370 409.254425,524.764404 
	C408.218384,528.407288 406.090515,531.945435 402.888245,534.510071 
	C398.576569,537.963135 393.789001,536.296875 391.760010,530.694214 
	C392.066193,529.723267 392.355072,529.116882 392.839355,528.237305 
z"/>
<path fill="#000000" opacity="1.000000" stroke="none" 
	d="
M452.242126,485.809509 
	C452.152740,488.244537 452.292358,490.897003 449.224854,489.845184 
	C446.922272,489.055695 442.175385,490.900055 443.333771,485.191986 
	C444.155334,481.143280 444.379089,476.972260 444.846619,472.853180 
	C445.089813,470.710327 446.145050,469.510040 448.410065,469.584320 
	C450.627991,469.657074 451.078003,471.173187 451.221375,472.966583 
	C451.552032,477.102478 451.891357,481.237701 452.242126,485.809509 
z"/>
<path fill="#000000" opacity="1.000000" stroke="none" 
	d="
M457.052490,524.349731 
	C457.627167,528.661987 458.079041,532.592590 458.437653,536.531677 
	C458.984833,542.541687 453.689087,539.479370 451.313782,540.678589 
	C449.163361,541.764282 448.843292,538.773376 448.836548,537.023315 
	C448.823242,533.568359 448.584320,530.049133 449.973053,526.757141 
	C451.320526,523.562988 453.484558,522.171753 457.052490,524.349731 
z"/>
<path fill="#000000" opacity="1.000000" stroke="none" 
	d="
M462.773682,470.801514 
	C463.941742,477.015503 465.207458,482.869110 464.043121,488.885315 
	C459.350006,485.945679 461.777069,480.659119 459.362762,476.619568 
	C459.025635,479.919312 459.313141,482.679077 460.091797,485.434875 
	C460.404388,486.541229 460.407959,487.929504 458.998230,488.393219 
	C457.253754,488.967072 456.477081,487.561066 456.207672,486.299866 
	C455.340210,482.238342 454.521118,478.163940 455.427490,473.949707 
	C456.358124,469.622772 458.725830,468.582062 462.773682,470.801514 
z"/>
<path fill="#000000" opacity="1.000000" stroke="none" 
	d="
M447.528320,530.550476 
	C447.449158,532.142029 447.449219,533.305664 447.378876,534.465027 
	C447.251495,536.565125 447.714111,539.205017 444.163147,538.587036 
	C441.563721,538.134644 437.810455,538.726685 438.674774,534.236877 
	C439.370453,530.622925 436.698334,525.806763 442.852295,523.942261 
	C447.346497,522.580688 448.064697,522.549683 447.912140,527.152588 
	C447.879272,528.144592 447.691925,529.131470 447.528320,530.550476 
z"/>
<path fill="#000000" opacity="1.000000" stroke="none" 
	d="
M415.044281,527.930176 
	C416.350983,526.633240 416.411011,524.030334 419.015991,524.056763 
	C420.025177,526.740540 417.615143,535.754272 415.501740,536.970886 
	C413.233704,538.276489 412.650208,536.508118 412.120972,534.251465 
	C413.143036,531.715637 414.093658,529.822937 415.044281,527.930176 
z"/>
<path fill="#000000" opacity="1.000000" stroke="none" 
	d="
M467.390778,487.490967 
	C465.219849,482.035034 465.114502,476.788605 465.858154,471.277039 
	C468.511810,471.885437 468.157379,473.632172 468.206299,474.954742 
	C468.323029,478.110962 468.686493,481.193390 469.647095,484.220032 
	C470.197388,485.954010 470.856537,487.975616 467.390778,487.490967 
z"/>
<path fill="#000000" opacity="1.000000" stroke="none" 
	d="
M415.049011,527.573242 
	C414.093658,529.822937 413.143036,531.715637 412.032532,533.937744 
	C410.448456,534.934753 409.560059,536.823669 406.915710,535.971313 
	C407.255859,531.489502 410.512543,528.544556 413.164032,525.507812 
	C414.265778,524.246033 414.945862,525.991638 415.049011,527.573242 
z"/>
<path fill="#000000" opacity="1.000000" stroke="none" 
	d="
M441.200378,241.503891 
	C446.827820,236.950745 447.513397,233.404907 444.530426,227.547607 
	C442.948395,224.441116 441.452118,221.251205 440.336304,217.956985 
	C438.911041,213.748901 440.253601,211.888336 444.576508,211.713547 
	C451.414032,211.437088 458.233276,211.844650 465.010193,212.773163 
	C467.411560,213.102188 469.552765,214.163483 470.470215,216.577530 
	C471.420410,219.077881 469.581116,220.646774 468.069855,222.163116 
	C465.013306,225.229950 462.096863,228.503815 458.695740,231.141953 
	C454.852966,234.122696 455.412628,237.254379 457.400482,240.711670 
	C459.613251,244.560104 462.825500,246.554886 467.390259,245.326431 
	C469.355225,244.797607 471.773682,242.740555 472.814758,245.910004 
	C473.696350,248.593857 471.072357,249.991989 469.073547,251.117081 
	C464.221283,253.848328 457.538361,252.196075 452.801208,247.254456 
	C452.007721,246.426743 451.236084,245.578064 450.036926,244.291061 
	C445.083374,250.018890 438.485870,249.524567 431.973602,249.264511 
	C429.551147,249.167755 426.923767,248.697769 427.056824,245.576889 
	C427.181000,242.664795 429.713776,242.603409 431.956757,242.655991 
	C434.966370,242.726517 437.959137,242.709793 441.200378,241.503891 
z"/>
</svg>